<svg width="30" height="30" viewBox="0 0 30 30" fill="none" xmlns="http://www.w3.org/2000/svg">
<path fill-rule="evenodd" clip-rule="evenodd" d="M7.5 1.875H22.5C23.4946 1.875 24.4484 2.27009 25.1516 2.97335C25.8549 3.67661 26.25 4.63044 26.25 5.625V24.375C26.25 25.3696 25.8549 26.3234 25.1516 27.0266C24.4484 27.7299 23.4946 28.125 22.5 28.125H7.5C6.50544 28.125 5.55161 27.7299 4.84835 27.0266C4.14509 26.3234 3.75 25.3696 3.75 24.375V5.625C3.75 4.63044 4.14509 3.67661 4.84835 2.97335C5.55161 2.27009 6.50544 1.875 7.5 1.875V1.875ZM7.5 3.75C7.00272 3.75 6.52581 3.94754 6.17417 4.29917C5.82254 4.65081 5.625 5.12772 5.625 5.625V24.375C5.625 24.8723 5.82254 25.3492 6.17417 25.7008C6.52581 26.0525 7.00272 26.25 7.5 26.25H22.5C22.9973 26.25 23.4742 26.0525 23.8258 25.7008C24.1775 25.3492 24.375 24.8723 24.375 24.375V5.625C24.375 5.12772 24.1775 4.65081 23.8258 4.29917C23.4742 3.94754 22.9973 3.75 22.5 3.75H7.5Z" fill="black"/>
<path d="M25.8453 26.25C24.9134 23.8688 22.1178 20.625 15.0003 20.625C7.88277 20.625 5.08715 23.8688 4.15527 26.25H25.8453V26.25Z" fill="black"/>
<path fill-rule="evenodd" clip-rule="evenodd" d="M15 18.75C15.7387 18.75 16.4701 18.6045 17.1526 18.3218C17.8351 18.0391 18.4551 17.6248 18.9775 17.1025C19.4998 16.5801 19.9141 15.9601 20.1968 15.2776C20.4795 14.5951 20.625 13.8637 20.625 13.125C20.625 12.3863 20.4795 11.6549 20.1968 10.9724C19.9141 10.2899 19.4998 9.66985 18.9775 9.14752C18.4551 8.6252 17.8351 8.21086 17.1526 7.92818C16.4701 7.6455 15.7387 7.5 15 7.5C13.5082 7.5 12.0774 8.09263 11.0225 9.14752C9.96763 10.2024 9.375 11.6332 9.375 13.125C9.375 14.6168 9.96763 16.0476 11.0225 17.1025C12.0774 18.1574 13.5082 18.75 15 18.75V18.75Z" fill="black"/>
</svg>
