<svg width="30" height="30" viewBox="0 0 30 30" fill="none" xmlns="http://www.w3.org/2000/svg">
<path d="M29.7047 25.0875C25.3041 17.0484 20.9016 9.00937 16.5 0.970311C16.3532 0.692097 16.1333 0.459216 15.8639 0.296771C15.5946 0.134326 15.286 0.0484772 14.9714 0.0484772C14.6568 0.0484772 14.3483 0.134326 14.0789 0.296771C13.8095 0.459216 13.5896 0.692097 13.4428 0.970311C9.04172 9.00937 4.63687 17.0484 0.238123 25.0875C-0.442971 26.3292 0.425154 27.9389 1.76531 27.9389H28.1794C28.9219 27.9389 29.4206 27.5391 29.6808 26.9967C30.008 26.4802 30.0956 25.7944 29.7066 25.0866" fill="#FFDD15"/>
<path d="M13.5549 16.1611L13.1381 9.94453C13.0603 8.73375 13.0228 7.86375 13.0228 7.33593C13.0228 6.61687 13.2103 6.05765 13.5863 5.65406C13.9636 5.25281 14.4595 5.05125 15.0745 5.05125C15.8166 5.05125 16.3149 5.30953 16.5642 5.82281C16.816 6.33937 16.9435 7.08093 16.9435 8.04984C16.9435 8.61937 16.9125 9.19968 16.8506 9.78797L16.2928 16.1859C16.2324 16.9481 16.1035 17.5322 15.9052 17.9386C15.7055 18.3469 15.3764 18.5484 14.9166 18.5484C14.4516 18.5484 14.1244 18.352 13.9453 17.9592C13.7611 17.565 13.6322 16.9655 13.5549 16.1611V16.1611ZM14.9949 24.7003C14.4675 24.7003 14.0077 24.5306 13.6135 24.188C13.2192 23.8467 13.0228 23.3686 13.0228 22.7545C13.0228 22.2187 13.2103 21.7608 13.5863 21.3853C13.9636 21.0075 14.4235 20.82 14.9695 20.82C15.5156 20.82 15.9788 21.0075 16.365 21.3853C16.747 21.7608 16.9435 22.2187 16.9435 22.7545C16.9435 23.3592 16.747 23.8364 16.3594 24.1814C15.9867 24.521 15.499 24.7065 14.9949 24.7003" fill="#1F2E35"/>
</svg>
