<svg width="40" height="41" viewBox="0 0 40 41" fill="none" xmlns="http://www.w3.org/2000/svg">
<path d="M24.1027 11.3334H15.8976C15.2176 11.3334 14.5654 11.5928 14.0845 12.0545C13.6036 12.5163 13.3335 13.1425 13.3335 13.7955V30.5379C13.3335 31.1909 13.6036 31.8172 14.0845 32.2789C14.5654 32.7406 15.2176 33 15.8976 33H24.1027C24.7828 33 25.435 32.7406 25.9158 32.2789C26.3967 31.8172 26.6668 31.1909 26.6668 30.5379V13.7955C26.6668 13.1425 26.3967 12.5163 25.9158 12.0545C25.435 11.5928 24.7828 11.3334 24.1027 11.3334ZM20.0002 32.0152C19.1489 32.0152 18.4617 31.3553 18.4617 30.5379C18.4617 29.7205 19.1489 29.0606 20.0002 29.0606C20.8514 29.0606 21.5386 29.7205 21.5386 30.5379C21.5386 31.3553 20.8514 32.0152 20.0002 32.0152ZM24.6155 28.0758H15.3848V14.2879H24.6155V28.0758Z" fill="white"/>
<path d="M40 20.5C40 31.5457 31.0457 40.5 20 40.5C8.9543 40.5 0 31.5457 0 20.5C0 9.4543 8.9543 0.5 20 0.5C31.0457 0.5 40 9.4543 40 20.5Z" fill="white" fill-opacity="0.1"/>
</svg>
