<svg width="30" height="30" viewBox="0 0 30 30" fill="none" xmlns="http://www.w3.org/2000/svg">
<path opacity="0.1" fill-rule="evenodd" clip-rule="evenodd" d="M0 15C0 6.71573 6.71573 0 15 0C23.2843 0 30 6.71573 30 15C30 23.2843 23.2843 30 15 30C6.71573 30 0 23.2843 0 15Z" fill="white"/>
<path d="M13.7765 12.1284V13.4194H12.8315V14.9972H13.7765V19.6875H15.719V14.9972H17.0222C17.0222 14.9972 17.145 14.2406 17.204 13.4128H15.7265V12.3347C15.7265 12.1725 15.9384 11.9559 16.1484 11.9559H17.2059V10.3125H15.7669C13.7287 10.3125 13.7765 11.8922 13.7765 12.1284Z" fill="white"/>
<path d="M15 22.5C16.9891 22.5 18.8968 21.7098 20.3033 20.3033C21.7098 18.8968 22.5 16.9891 22.5 15C22.5 13.0109 21.7098 11.1032 20.3033 9.6967C18.8968 8.29018 16.9891 7.5 15 7.5C13.0109 7.5 11.1032 8.29018 9.6967 9.6967C8.29018 11.1032 7.5 13.0109 7.5 15C7.5 16.9891 8.29018 18.8968 9.6967 20.3033C11.1032 21.7098 13.0109 22.5 15 22.5V22.5ZM15 24.375C9.82219 24.375 5.625 20.1778 5.625 15C5.625 9.82219 9.82219 5.625 15 5.625C20.1778 5.625 24.375 9.82219 24.375 15C24.375 20.1778 20.1778 24.375 15 24.375Z" fill="white"/>
</svg>
