<svg width="30" height="30" viewBox="0 0 30 30" fill="none" xmlns="http://www.w3.org/2000/svg">
<g clip-path="url(#clip0)">
<path d="M26.6667 4.16666H3.33333C2.44928 4.16666 1.60143 4.51785 0.976311 5.14297C0.35119 5.76809 0 6.61593 0 7.49999L0 12.5H30V7.49999C30 6.61593 29.6488 5.76809 29.0237 5.14297C28.3986 4.51785 27.5507 4.16666 26.6667 4.16666V4.16666ZM26.6667 25.8333H3.33333C2.44928 25.8333 1.60143 25.4821 0.976311 24.857C0.35119 24.2319 0 23.384 0 22.5V17.5H30V22.5C30 23.384 29.6488 24.2319 29.0237 24.857C28.3986 25.4821 27.5507 25.8333 26.6667 25.8333V25.8333Z" fill="#9E3039"/>
<path d="M0 12.5H30V17.5H0V12.5Z" fill="#EEEEEE"/>
</g>
<defs>
<clipPath id="clip0">
<rect width="30" height="30" fill="white"/>
</clipPath>
</defs>
</svg>
