<svg width="72" height="144" viewBox="0 0 72 144" fill="none" xmlns="http://www.w3.org/2000/svg">
<g clip-path="url(#clip0)">
<path d="M38.9834 54.4041C40.5008 56.6909 42.2035 58.2465 43.9084 58.8978C48.6135 60.6981 53.9083 58.3406 55.71 53.6298C56.1423 52.5098 56.3481 51.3152 56.3154 50.1152C56.2828 48.9151 56.0123 47.7335 55.5198 46.6386C55.0334 45.5409 54.3341 44.5506 53.4624 43.725C52.5907 42.8994 51.5638 42.255 50.4413 41.8289C47.9269 40.8658 45.6167 40.4974 43.2508 41.8027C42.9679 41.9583 42.4227 41.0313 42.3011 40.7343L40.906 38.1512L33.743 41.7363C36.7906 49.6205 38.5648 53.7762 38.9834 54.4041V54.4041ZM44.6593 45.8927C45.1817 45.5621 45.7645 45.3385 46.374 45.2348C46.9834 45.131 47.6073 45.1491 48.2097 45.2881C48.8127 45.4243 49.3828 45.6787 49.8868 46.0366C50.3909 46.3946 50.819 46.8489 51.1463 47.3733C51.4768 47.8958 51.7004 48.4785 51.8042 49.088C51.908 49.6974 51.8899 50.3213 51.7509 50.9237C51.6145 51.5267 51.36 52.0966 51.0021 52.6007C50.6442 53.1047 50.1899 53.5328 49.6656 53.8603C49.1431 54.1908 48.5601 54.4144 47.9506 54.518C47.341 54.6217 46.717 54.6034 46.1145 54.4642C45.5117 54.3281 44.9418 54.0737 44.4378 53.7159C43.9339 53.3581 43.5059 52.9039 43.1786 52.3796C42.8481 51.8571 42.6245 51.2742 42.5209 50.6646C42.4172 50.0551 42.4355 49.431 42.5748 48.8286C42.7113 48.2259 42.9658 47.6561 43.3236 47.1523C43.6814 46.6484 44.1353 46.2203 44.6593 45.8927V45.8927Z" fill="#EA5A47"/>
<path d="M40.7377 38.451L28.0727 8.62737C27.0177 10.6652 25.7286 12.7251 25.7484 15.4955C25.7746 18.9766 27.2807 23.0028 27.2807 23.0028C27.2807 23.0028 33.6009 40.0484 33.9219 40.8898C33.9332 40.9209 40.7377 38.451 40.7377 38.451V38.451Z" fill="#D0CFCE"/>
<path d="M45.2809 9.05026C45.2809 9.05026 38.132 23.5247 38.3081 23.0248L38.3024 23.0248L36.6775 26.9804L42.2141 39.7804L44.3107 33.8032L44.3008 33.7919C44.2527 33.8881 46.9687 23.145 47.0288 22.9591C48.4049 18.6443 47.6532 13.6457 45.2823 9.05026H45.2809Z" fill="#9B9B9A"/>
<path d="M23.5062 42.6816C19.3315 44.2797 16.2987 50.1819 17.8953 54.3553C19.4941 58.5321 25.1453 61.8584 29.3208 60.261C30.8325 59.6826 32.8549 58.2203 34.2019 56.1902C34.2606 56.1032 36.4222 53.6489 36.3261 54.1028L37.1901 51.7354C35.9216 48.8009 32.5041 40.38 32.2531 39.7189L31.2455 42.5834L31.2497 42.5961C31.4378 42.8096 25.612 41.877 23.5062 42.6816V42.6816ZM30.6487 50.1763C30.7832 50.758 30.8009 51.3607 30.7009 51.9494C30.6009 52.538 30.3851 53.101 30.066 53.6057C29.4237 54.6249 28.4034 55.3479 27.2289 55.616C26.0543 55.8842 24.8214 55.6757 23.8004 55.0362C23.2936 54.7202 22.8547 54.3067 22.509 53.8197C22.1633 53.3327 21.9177 52.7819 21.7865 52.1993C21.6525 51.6177 21.635 51.0152 21.7353 50.4268C21.8355 49.8384 22.0515 49.2757 22.3706 48.7712C22.6869 48.2648 23.1003 47.826 23.5871 47.4802C24.0739 47.1344 24.6244 46.8885 25.2068 46.7567C25.7885 46.6224 26.3911 46.6048 26.9796 46.7049C27.5682 46.805 28.131 47.0209 28.6356 47.3401C29.1422 47.6562 29.581 48.0698 29.9267 48.5568C30.2724 49.0437 30.518 49.5944 30.6494 50.177L30.6487 50.1763Z" fill="#D22F27"/>
<path d="M33.7508 41.9647C31.0482 34.9374 28.0996 26.9061 27.3409 24.5239C25.9676 20.2233 24.1893 13.2646 28.2926 7.74141L40.9456 38.2983" stroke="black" stroke-width="2" stroke-miterlimit="10" stroke-linecap="round" stroke-linejoin="round"/>
<path d="M50.179 41.5948C48.9414 41.1201 47.6148 40.9219 46.2925 41.0144C44.9701 41.1069 43.6841 41.4877 42.5246 42.1301L40.9456 38.2983L33.7508 41.9647C35.9669 47.7248 38.231 53.3463 38.8229 54.2379C39.8305 55.7575 41.4795 57.7671 43.6672 58.6043C45.9175 59.4432 48.408 59.3594 50.5967 58.371C52.7854 57.3827 54.4951 55.5698 55.3537 53.3271C56.2123 51.0843 56.1503 48.5931 55.1811 46.3959C54.212 44.1986 52.4142 42.4731 50.179 41.5948V41.5948ZM51.0176 47.4539C51.3357 47.9602 51.551 48.5242 51.6511 49.1137C51.7512 49.7032 51.7342 50.3067 51.6011 50.8896C51.468 51.4726 51.2214 52.0236 50.8754 52.5112C50.5293 52.9988 50.0906 53.4135 49.5843 53.7316C49.078 54.0497 48.514 54.265 47.9245 54.3651C47.335 54.4652 46.7316 54.4482 46.1486 54.3151C45.5657 54.182 45.0147 53.9354 44.527 53.5894C44.0394 53.2433 43.6247 52.8046 43.3066 52.2983C42.6642 51.2758 42.4543 50.0399 42.7231 48.8626C42.9919 47.6853 43.7174 46.663 44.7399 46.0206C45.7625 45.3782 46.9983 45.1683 48.1756 45.4371C49.3529 45.7059 50.3752 46.4314 51.0176 47.4539Z" stroke="black" stroke-width="2" stroke-miterlimit="10" stroke-linecap="round" stroke-linejoin="round"/>
<path d="M30.5016 43.2565C29.3754 42.6953 28.1448 42.3744 26.888 42.3142C25.6311 42.2539 24.3755 42.4556 23.2007 42.9065C22.0838 43.3341 21.0621 43.9775 20.1939 44.8C19.3256 45.6225 18.6279 46.608 18.1405 47.7001C17.1561 49.9058 17.0883 52.4121 17.9519 54.6678C18.8155 56.9235 20.5398 58.7437 22.7455 59.7281C24.9511 60.7124 27.4575 60.7803 29.7132 59.9167C31.9017 59.0787 33.55 57.0699 34.5576 55.5503C34.723 55.3014 35.0017 54.7244 35.3672 53.8964L30.5016 43.2565ZM30.0738 53.6107C29.7557 54.117 29.341 54.5557 28.8534 54.9017C28.3658 55.2478 27.8148 55.4944 27.2318 55.6275C26.6489 55.7606 26.0454 55.7776 25.4559 55.6774C24.8664 55.5773 24.3024 55.3621 23.7961 55.044C23.2898 54.7259 22.8511 54.3112 22.5051 53.8236C22.159 53.3359 21.9124 52.7849 21.7793 52.202C21.6462 51.6191 21.6293 51.0156 21.7294 50.4261C21.8295 49.8366 22.0447 49.2726 22.3628 48.7663C23.0052 47.7438 24.0275 47.0183 25.2048 46.7495C26.3821 46.4807 27.618 46.6906 28.6405 47.333C29.6631 47.9754 30.3885 48.9977 30.6573 50.175C30.9261 51.3523 30.7162 52.5882 30.0738 53.6107V53.6107Z" stroke="black" stroke-width="2" stroke-miterlimit="10" stroke-linecap="round" stroke-linejoin="round"/>
<path d="M39.2429 23.3571L45.0871 9.05308C49.1912 14.577 47.4121 21.5349 46.0403 25.837C45.5913 27.2434 44.8962 29.3753 43.4226 33.3521" stroke="black" stroke-width="2" stroke-miterlimit="10" stroke-linecap="round" stroke-linejoin="round"/>
</g>
<path d="M47 88H24C23.4696 88 22.9609 87.7893 22.5858 87.4142C22.2107 87.0391 22 86.5304 22 86C22 85.4696 22.2107 84.9609 22.5858 84.5858C22.9609 84.2107 23.4696 84 24 84H47C47.5304 84 48.0391 84.2107 48.4142 84.5858C48.7893 84.9609 49 85.4696 49 86C49 86.5304 48.7893 87.0391 48.4142 87.4142C48.0391 87.7893 47.5304 88 47 88Z" fill="#D0CFCE"/>
<path d="M48.5 132H25.5C24.9696 132 24.4609 131.789 24.0858 131.414C23.7107 131.039 23.5 130.53 23.5 130C23.5 129.47 23.7107 128.961 24.0858 128.586C24.4609 128.211 24.9696 128 25.5 128H48.5C49.0304 128 49.5391 128.211 49.9142 128.586C50.2893 128.961 50.5 129.47 50.5 130C50.5 130.53 50.2893 131.039 49.9142 131.414C49.5391 131.789 49.0304 132 48.5 132Z" fill="#D0CFCE"/>
<path d="M24.5 88H46.5V128H24.5V88Z" fill="#EA5A47"/>
<path d="M40.322 88L24.5 97V93L32.962 88H40.322Z" fill="white"/>
<path d="M24.5 109L46.5 96V92L24.5 105V109Z" fill="white"/>
<path d="M46.5 104L24.5 117V121L46.5 108V104Z" fill="white"/>
<path d="M46.5 116L26.192 128H32.962L46.5 120V116Z" fill="white"/>
<path d="M46.5 88H40.322L24.5 97V105L46.5 92V88Z" fill="#92D3F5"/>
<path d="M46.5 116L26.192 128H24.5V121L46.5 108V116Z" fill="#92D3F5"/>
<path d="M47 88H24C23.4696 88 22.9609 87.7893 22.5858 87.4142C22.2107 87.0391 22 86.5304 22 86C22 85.4696 22.2107 84.9609 22.5858 84.5858C22.9609 84.2107 23.4696 84 24 84H47C47.5304 84 48.0391 84.2107 48.4142 84.5858C48.7893 84.9609 49 85.4696 49 86C49 86.5304 48.7893 87.0391 48.4142 87.4142C48.0391 87.7893 47.5304 88 47 88Z" stroke="black" stroke-width="2" stroke-miterlimit="10" stroke-linecap="round" stroke-linejoin="round"/>
<path d="M47 132H24C23.4696 132 22.9609 131.789 22.5858 131.414C22.2107 131.039 22 130.53 22 130C22 129.47 22.2107 128.961 22.5858 128.586C22.9609 128.211 23.4696 128 24 128H47C47.5304 128 48.0391 128.211 48.4142 128.586C48.7893 128.961 49 129.47 49 130C49 130.53 48.7893 131.039 48.4142 131.414C48.0391 131.789 47.5304 132 47 132Z" stroke="black" stroke-width="2" stroke-miterlimit="10" stroke-linecap="round" stroke-linejoin="round"/>
<path d="M24.5 88H46.5V128H24.5V88Z" stroke="black" stroke-width="2" stroke-miterlimit="10" stroke-linecap="round" stroke-linejoin="round"/>
<path d="M40.322 88L24.5 97V93L32.962 88H40.322Z" stroke="black" stroke-width="2" stroke-miterlimit="10" stroke-linecap="round" stroke-linejoin="round"/>
<path d="M24.5 109L46.5 96V92L24.5 105V109Z" stroke="black" stroke-width="2" stroke-miterlimit="10" stroke-linecap="round" stroke-linejoin="round"/>
<path d="M46.5 104L24.5 117V121L46.5 108V104Z" stroke="black" stroke-width="2" stroke-miterlimit="10" stroke-linecap="round" stroke-linejoin="round"/>
<path d="M46.5 116L26.192 128H32.962L46.5 120V116Z" stroke="black" stroke-width="2" stroke-miterlimit="10" stroke-linecap="round" stroke-linejoin="round"/>
<path d="M46.5 88H40.322L24.5 97V105L46.5 92V88Z" stroke="black" stroke-width="2" stroke-miterlimit="10" stroke-linecap="round" stroke-linejoin="round"/>
<path d="M46.5 116L26.192 128H24.5V121L46.5 108V116Z" stroke="black" stroke-width="2" stroke-miterlimit="10" stroke-linecap="round" stroke-linejoin="round"/>
<defs>
<clipPath id="clip0">
<rect width="72" height="72" fill="white"/>
</clipPath>
</defs>
</svg>
