<svg width="70" height="70" viewBox="0 0 70 70" fill="none" xmlns="http://www.w3.org/2000/svg">
<rect width="70" height="70" rx="10" fill="url(#paint0_linear)"/>
<path d="M24.8493 34.428H33.7413V47.028C32.3493 47.484 30.9453 47.82 29.5293 48.036C28.1133 48.252 26.5053 48.36 24.7053 48.36C22.0413 48.36 19.7973 47.832 17.9733 46.776C16.1493 45.696 14.7573 44.172 13.7973 42.204C12.8613 40.212 12.3933 37.86 12.3933 35.148C12.3933 32.46 12.9213 30.132 13.9773 28.164C15.0333 26.196 16.5453 24.672 18.5133 23.592C20.5053 22.488 22.9053 21.936 25.7133 21.936C27.1533 21.936 28.5093 22.068 29.7813 22.332C31.0773 22.596 32.2773 22.968 33.3813 23.448L32.1573 26.256C31.2453 25.848 30.2133 25.5 29.0613 25.212C27.9333 24.924 26.7573 24.78 25.5333 24.78C22.4613 24.78 20.0613 25.704 18.3333 27.552C16.6293 29.4 15.7773 31.932 15.7773 35.148C15.7773 37.188 16.1013 39 16.7493 40.584C17.4213 42.144 18.4653 43.368 19.8813 44.256C21.2973 45.12 23.1573 45.552 25.4613 45.552C26.5893 45.552 27.5493 45.492 28.3413 45.372C29.1333 45.252 29.8533 45.108 30.5013 44.94V37.308H24.8493V34.428ZM47.2247 22.296C50.4407 22.296 52.8647 22.776 54.4967 23.736C56.1527 24.672 56.9807 26.316 56.9807 28.668C56.9807 30.18 56.5607 31.44 55.7207 32.448C54.8807 33.432 53.6687 34.068 52.0847 34.356V34.536C53.1647 34.704 54.1367 35.016 55.0007 35.472C55.8887 35.928 56.5847 36.576 57.0887 37.416C57.5927 38.256 57.8447 39.348 57.8447 40.692C57.8447 43.02 57.0407 44.82 55.4327 46.092C53.8487 47.364 51.6767 48 48.9167 48H39.8807V22.296H47.2247ZM47.8727 33.24C50.0807 33.24 51.5927 32.892 52.4087 32.196C53.2247 31.476 53.6327 30.42 53.6327 29.028C53.6327 27.612 53.1287 26.604 52.1207 26.004C51.1367 25.38 49.5527 25.068 47.3687 25.068H43.1207V33.24H47.8727ZM43.1207 35.94V45.264H48.3047C50.5847 45.264 52.1687 44.82 53.0567 43.932C53.9447 43.044 54.3887 41.88 54.3887 40.44C54.3887 39.096 53.9207 38.016 52.9847 37.2C52.0727 36.36 50.4287 35.94 48.0527 35.94H43.1207Z" fill="white"/>
<defs>
<linearGradient id="paint0_linear" x1="35" y1="0" x2="35" y2="70" gradientUnits="userSpaceOnUse">
<stop stop-color="#CC0000"/>
<stop offset="1" stop-color="#0013C0"/>
</linearGradient>
</defs>
</svg>
