<svg width="30" height="32" viewBox="0 0 30 32" fill="none" xmlns="http://www.w3.org/2000/svg">
<g clip-path="url(#clip0)">
<path fill-rule="evenodd" clip-rule="evenodd" d="M8.03571 2H25.1786C26.3152 2 27.4053 2.48163 28.209 3.33894C29.0128 4.19625 29.4643 5.35901 29.4643 6.57143V29.4286C29.4643 30.641 29.0128 31.8038 28.209 32.6611C27.4053 33.5184 26.3152 34 25.1786 34H8.03571C6.89907 34 5.80898 33.5184 5.00526 32.6611C4.20153 31.8038 3.75 30.641 3.75 29.4286V6.57143C3.75 5.35901 4.20153 4.19625 5.00526 3.33894C5.80898 2.48163 6.89907 2 8.03571 2V2ZM8.03571 4.28571C7.46739 4.28571 6.92235 4.52653 6.52049 4.95518C6.11862 5.38384 5.89286 5.96522 5.89286 6.57143V29.4286C5.89286 30.0348 6.11862 30.6162 6.52049 31.0448C6.92235 31.4735 7.46739 31.7143 8.03571 31.7143H25.1786C25.7469 31.7143 26.2919 31.4735 26.6938 31.0448C27.0957 30.6162 27.3214 30.0348 27.3214 29.4286V6.57143C27.3214 5.96522 27.0957 5.38384 26.6938 4.95518C26.2919 4.52653 25.7469 4.28571 25.1786 4.28571H8.03571Z" fill="black"/>
<path d="M29.002 31.7143C27.937 28.8114 24.742 24.8571 16.6077 24.8571C8.47338 24.8571 5.27838 28.8114 4.21338 31.7143H29.002V31.7143Z" fill="black"/>
<path fill-rule="evenodd" clip-rule="evenodd" d="M16.6073 22.5714C17.4515 22.5714 18.2874 22.3941 19.0674 22.0495C19.8473 21.7049 20.556 21.1998 21.153 20.563C21.7499 19.9263 22.2234 19.1703 22.5465 18.3384C22.8696 17.5065 23.0359 16.6148 23.0359 15.7143C23.0359 14.8138 22.8696 13.9221 22.5465 13.0902C22.2234 12.2582 21.7499 11.5023 21.153 10.8656C20.556 10.2288 19.8473 9.72371 19.0674 9.37911C18.2874 9.03451 17.4515 8.85714 16.6073 8.85714C14.9023 8.85714 13.2672 9.57959 12.0616 10.8656C10.856 12.1515 10.1787 13.8957 10.1787 15.7143C10.1787 17.5329 10.856 19.2771 12.0616 20.563C13.2672 21.849 14.9023 22.5714 16.6073 22.5714V22.5714Z" fill="black"/>
</g>
<defs>
<clipPath id="clip0">
<rect width="30" height="32" fill="white"/>
</clipPath>
</defs>
</svg>
