<svg width="35" height="35" viewBox="0 0 35 35" fill="none" xmlns="http://www.w3.org/2000/svg">
<path d="M34.357 27.4166L26.3706 20.1551C25.9931 19.812 25.497 19.629 24.9871 19.6447C24.4771 19.6605 23.9933 19.8738 23.6377 20.2396L18.9362 25.0747C17.8045 24.8586 15.5294 24.1493 13.1875 21.8133C10.8456 19.4694 10.1364 17.1884 9.92615 16.0646L14.7573 11.3612C15.1236 11.0058 15.3372 10.5219 15.3529 10.0118C15.3687 9.50178 15.1854 9.0056 14.8418 8.6283L7.58228 0.643812C7.23854 0.265329 6.7608 0.0357501 6.25052 0.00383465C5.74024 -0.0280808 5.23762 0.140181 4.8494 0.472885L0.586031 4.12917C0.246358 4.47007 0.043619 4.92378 0.0162715 5.40425C-0.0131988 5.89542 -0.575099 17.5303 8.44674 26.5561C16.3173 34.4246 26.1761 35.0003 28.8913 35.0003C29.2881 35.0003 29.5318 34.9885 29.5966 34.9846C30.077 34.9577 30.5305 34.754 30.8697 34.4128L34.524 30.1475C34.858 29.7605 35.0275 29.2583 34.9963 28.7481C34.9651 28.2378 34.7357 27.76 34.357 27.4166V27.4166Z" fill="black"/>
</svg>
