<svg width="304" height="304" viewBox="0 0 304 304" fill="none" xmlns="http://www.w3.org/2000/svg">
<g clip-path="url(#clip0)">
<path d="M164.596 229.706C171.003 239.362 178.193 245.93 185.391 248.679C205.257 256.281 227.613 246.327 235.22 226.437C237.045 221.708 237.914 216.664 237.776 211.597C237.638 206.53 236.496 201.541 234.417 196.919C232.363 192.284 229.411 188.103 225.73 184.617C222.049 181.131 217.714 178.41 212.974 176.611C202.358 172.545 192.604 170.989 182.614 176.501C181.42 177.157 179.118 173.243 178.605 171.989L172.714 161.083L142.47 176.22C155.338 209.509 162.829 227.055 164.596 229.706V229.706ZM188.562 193.769C190.767 192.374 193.228 191.429 195.801 190.991C198.374 190.553 201.009 190.63 203.552 191.216C206.098 191.791 208.505 192.866 210.633 194.377C212.762 195.888 214.569 197.806 215.951 200.021C217.347 202.227 218.291 204.687 218.729 207.26C219.167 209.833 219.091 212.468 218.504 215.011C217.928 217.557 216.853 219.964 215.342 222.092C213.831 224.22 211.913 226.028 209.699 227.41C207.493 228.806 205.032 229.75 202.458 230.187C199.884 230.625 197.249 230.548 194.706 229.96C192.16 229.385 189.754 228.311 187.626 226.801C185.499 225.29 183.692 223.372 182.31 221.159C180.914 218.952 179.97 216.491 179.533 213.917C179.095 211.344 179.172 208.709 179.76 206.165C180.337 203.62 181.411 201.215 182.922 199.087C184.432 196.96 186.349 195.152 188.562 193.769V193.769Z" fill="#EA5A47"/>
<path d="M172.004 162.349L118.529 36.4267C114.075 45.0311 108.632 53.728 108.716 65.4255C108.826 80.1234 115.185 97.1232 115.185 97.1232C115.185 97.1232 141.87 169.093 143.226 172.646C143.274 172.777 172.004 162.349 172.004 162.349V162.349Z" fill="#D0CFCE"/>
<path d="M191.186 38.2122C191.186 38.2122 161.002 99.3267 161.745 97.2159L161.721 97.2159L154.861 113.917L178.237 167.962L187.09 142.725L187.048 142.677C186.845 143.083 198.312 97.7235 198.566 96.9383C204.376 78.7204 201.202 57.6154 191.192 38.2122L191.186 38.2122Z" fill="#9B9B9A"/>
<path d="M99.2485 180.211C81.6217 186.959 68.8167 211.879 75.5581 229.5C82.3084 247.136 106.169 261.18 123.799 254.435C130.182 251.993 138.721 245.819 144.408 237.248C144.656 236.88 153.783 226.517 153.377 228.434L157.025 218.439C151.669 206.048 137.24 170.493 136.18 167.702L131.925 179.796L131.943 179.85C132.738 180.752 108.139 176.814 99.2485 180.211V180.211ZM129.406 211.855C129.973 214.312 130.048 216.856 129.626 219.342C129.204 221.827 128.293 224.204 126.946 226.335C124.233 230.639 119.925 233.691 114.966 234.823C110.007 235.955 104.802 235.075 100.49 232.375C98.3509 231.041 96.4975 229.295 95.0379 227.239C93.5782 225.183 92.5414 222.857 91.9876 220.397C91.4215 217.941 91.348 215.398 91.7713 212.913C92.1946 210.429 93.1063 208.053 94.4537 205.923C95.789 203.785 97.5347 201.932 99.5901 200.472C101.646 199.012 103.97 197.974 106.429 197.417C108.885 196.85 111.429 196.776 113.914 197.198C116.399 197.621 118.775 198.533 120.906 199.88C123.045 201.215 124.898 202.961 126.357 205.017C127.817 207.074 128.854 209.399 129.409 211.858L129.406 211.855Z" fill="#D22F27"/>
<path d="M142.503 177.184C131.092 147.514 118.643 113.604 115.439 103.545C109.641 85.3872 102.133 56.0062 119.458 32.686L172.881 161.704" stroke="black" stroke-width="2" stroke-miterlimit="10" stroke-linecap="round" stroke-linejoin="round"/>
<path d="M211.867 175.623C206.641 173.618 201.04 172.782 195.457 173.172C189.874 173.562 184.444 175.17 179.548 177.883L172.881 161.704L142.503 177.184C151.86 201.505 161.42 225.24 163.919 229.005C168.173 235.421 175.135 243.905 184.373 247.44C193.874 250.983 204.389 250.629 213.63 246.456C222.871 242.283 230.09 234.628 233.716 225.159C237.341 215.689 237.079 205.171 232.987 195.894C228.895 186.616 221.304 179.331 211.867 175.623V175.623ZM215.408 200.361C216.751 202.499 217.66 204.88 218.082 207.369C218.505 209.858 218.433 212.406 217.871 214.867C217.309 217.329 216.268 219.655 214.807 221.714C213.346 223.773 211.494 225.524 209.356 226.867C207.218 228.21 204.837 229.119 202.348 229.541C199.859 229.964 197.311 229.893 194.85 229.331C192.388 228.769 190.062 227.727 188.003 226.266C185.944 224.805 184.193 222.953 182.85 220.815C180.138 216.498 179.252 211.28 180.386 206.309C181.521 201.338 184.584 197.022 188.902 194.309C193.219 191.597 198.437 190.711 203.408 191.846C208.379 192.981 212.695 196.044 215.408 200.361Z" stroke="black" stroke-width="2" stroke-miterlimit="10" stroke-linecap="round" stroke-linejoin="round"/>
<path d="M128.784 182.639C124.029 180.269 118.833 178.914 113.527 178.66C108.22 178.405 102.919 179.257 97.9585 181.161C93.2427 182.966 88.9287 185.683 85.2628 189.156C81.5969 192.628 78.6509 196.789 76.5929 201.4C72.4368 210.713 72.1504 221.296 75.7967 230.82C79.443 240.344 86.7234 248.029 96.0363 252.185C105.349 256.341 115.932 256.628 125.456 252.982C134.696 249.444 141.655 240.962 145.91 234.546C146.608 233.495 147.785 231.059 149.328 227.562L128.784 182.639ZM126.978 226.356C125.635 228.494 123.884 230.346 121.825 231.807C119.766 233.269 117.44 234.31 114.979 234.872C112.517 235.434 109.969 235.505 107.48 235.083C104.991 234.66 102.61 233.751 100.472 232.408C98.3346 231.065 96.4823 229.314 95.0212 227.255C93.5602 225.196 92.5189 222.87 91.957 220.409C91.395 217.947 91.3234 215.399 91.7461 212.91C92.1688 210.421 93.0776 208.04 94.4206 205.902C97.133 201.585 101.449 198.522 106.42 197.387C111.391 196.252 116.609 197.138 120.926 199.851C125.244 202.563 128.307 206.879 129.442 211.85C130.577 216.821 129.691 222.039 126.978 226.356V226.356Z" stroke="black" stroke-width="2" stroke-miterlimit="10" stroke-linecap="round" stroke-linejoin="round"/>
<path d="M165.692 98.6191L190.368 38.2241C207.696 61.5473 200.184 90.9253 194.392 109.089C192.497 115.028 189.562 124.029 183.34 140.82" stroke="black" stroke-width="2" stroke-miterlimit="10" stroke-linecap="round" stroke-linejoin="round"/>
</g>
<defs>
<clipPath id="clip0">
<rect width="304" height="304" fill="white"/>
</clipPath>
</defs>
</svg>
