<svg width="30" height="30" viewBox="0 0 30 30" fill="none" xmlns="http://www.w3.org/2000/svg">
<path d="M29.8104 2.37968C28.0316 -0.327604 24.6253 -0.590861 21.9891 0.913976L21.6583 1.1043L21.5231 1.09897C19.6696 1.09897 17.9478 2.00792 16.8912 3.5341L16.8307 3.61415C16.0658 4.76145 15.5446 5.8127 15.043 6.83193C14.5894 7.74978 14.1537 8.62849 13.5773 9.46985C12.9992 8.62493 12.5634 7.74444 12.1081 6.8266C11.6047 5.81092 11.0853 4.75967 10.3222 3.61415L10.2635 3.53588C9.74726 2.78459 9.05601 2.17018 8.24937 1.74563C7.44272 1.32108 6.5449 1.09914 5.63336 1.09897C4.14004 1.10038 2.70826 1.6941 1.65216 2.74987C0.596058 3.80564 0.00188365 5.23723 0 6.73055C0.00141205 8.22433 0.595322 9.65656 1.65142 10.713C2.70753 11.7694 4.13957 12.3638 5.63336 12.3657C7.0119 12.3657 8.32819 11.8552 9.34564 10.9587L10.5054 13.0896C7.62202 16.4266 5.20645 20.3008 5.1353 20.4199C2.93674 23.4474 6.38933 28.2821 6.53875 28.4849C6.62096 28.599 6.72918 28.692 6.85446 28.756C6.97973 28.8201 7.11846 28.8533 7.25915 28.8531C7.4186 28.851 7.57468 28.807 7.71175 28.7255C7.84881 28.644 7.96203 28.5279 8.04003 28.3888L13.5756 18.2196L19.1129 28.3888C19.1846 28.5208 19.2887 28.6324 19.4153 28.7133C19.5419 28.7941 19.6869 28.8416 19.8368 28.8513C19.9872 28.8648 20.1386 28.8379 20.2752 28.7735C20.4118 28.7091 20.5288 28.6095 20.6141 28.4849C20.7618 28.2821 24.2144 23.4474 22.0532 20.4733L21.4786 19.5466C19.5647 16.4586 19.3672 16.1384 16.6493 13.0825L17.8072 10.9569C18.8328 11.8622 20.1533 12.3625 21.5213 12.3639C23.0151 12.362 24.4471 11.7677 25.5032 10.7112C26.5593 9.65479 27.1532 8.22256 27.1547 6.72877C27.1547 5.60637 26.8156 4.51015 26.1817 3.58391C27.0213 3.10364 27.9551 3.36512 28.7716 3.75289C29.6005 4.09263 30.3671 3.08229 29.8104 2.37968V2.37968ZM5.57466 8.57868C5.1029 8.57868 4.65046 8.39128 4.31688 8.0577C3.9833 7.72411 3.79589 7.27168 3.79589 6.79992C3.79589 6.32816 3.9833 5.87572 4.31688 5.54214C4.65046 5.20856 5.1029 5.02115 5.57466 5.02115C6.04642 5.02115 6.49885 5.20856 6.83244 5.54214C7.16602 5.87572 7.35342 6.32816 7.35342 6.79992C7.35342 7.27168 7.16602 7.72411 6.83244 8.0577C6.49885 8.39128 6.04642 8.57868 5.57466 8.57868ZM13.5791 14.6176C13.3432 14.6176 13.117 14.5239 12.9502 14.3571C12.7834 14.1903 12.6897 13.9641 12.6897 13.7282C12.6897 13.4923 12.7834 13.2661 12.9502 13.0993C13.117 12.9325 13.3432 12.8388 13.5791 12.8388C13.815 12.8388 14.0412 12.9325 14.208 13.0993C14.3748 13.2661 14.4685 13.4923 14.4685 13.7282C14.4685 13.9641 14.3748 14.1903 14.208 14.3571C14.0412 14.5239 13.815 14.6176 13.5791 14.6176ZM21.5836 8.57868C21.1118 8.57868 20.6594 8.39128 20.3258 8.0577C19.9922 7.72411 19.8048 7.27168 19.8048 6.79992C19.8048 6.32816 19.9922 5.87572 20.3258 5.54214C20.6594 5.20856 21.1118 5.02115 21.5836 5.02115C22.0553 5.02115 22.5078 5.20856 22.8413 5.54214C23.1749 5.87572 23.3623 6.32816 23.3623 6.79992C23.3623 7.27168 23.1749 7.72411 22.8413 8.0577C22.5078 8.39128 22.0553 8.57868 21.5836 8.57868Z" fill="black"/>
</svg>
