<svg width="107" height="49" viewBox="0 0 107 49" fill="none" xmlns="http://www.w3.org/2000/svg">
<path d="M11 42.5L1.90674 26.75L20.0933 26.75L11 42.5Z" fill="#910B0B"/>
<path d="M53.5 43L44.4067 27.25L62.5933 27.25L53.5 43Z" fill="#910B0B"/>
<path d="M96.5 43L87.4067 27.25L105.593 27.25L96.5 43Z" fill="#910B0B"/>
<path d="M23.25 9.09326L41.4365 9.09326L32.3433 24.8433L23.25 9.09326Z" fill="#910B0B"/>
<path d="M68.25 10.0933L86.4365 10.0933L77.3433 25.8433L68.25 10.0933Z" fill="#910B0B"/>
<path d="M32.5 27L41.5933 42.75H23.4067L32.5 27Z" fill="#910B0B"/>
<path d="M77.5 28L86.5933 43.75H68.4067L77.5 28Z" fill="#910B0B"/>
<path d="M11 8.5L20.0933 24.25L1.90673 24.25L11 8.5Z" fill="#910B0B"/>
<path d="M53.5 9L62.5933 24.75L44.4067 24.75L53.5 9Z" fill="#910B0B"/>
<path d="M96.5 9L105.593 24.75L87.4067 24.75L96.5 9Z" fill="#910B0B"/>
</svg>
