<svg width="30" height="31" viewBox="0 0 30 31" fill="none" xmlns="http://www.w3.org/2000/svg">
<path d="M15 27.21C12.2152 27.21 9.54451 26.1038 7.57538 24.1346C5.60625 22.1655 4.5 19.4948 4.5 16.71C4.5 13.9252 5.60625 11.2545 7.57538 9.28538C9.54451 7.31625 12.2152 6.21 15 6.21C17.7848 6.21 20.4555 7.31625 22.4246 9.28538C24.3938 11.2545 25.5 13.9252 25.5 16.71C25.5 19.4948 24.3938 22.1655 22.4246 24.1346C20.4555 26.1038 17.7848 27.21 15 27.21ZM15 3.21C11.4196 3.21 7.9858 4.63232 5.45406 7.16406C2.92232 9.6958 1.5 13.1296 1.5 16.71C1.5 20.2904 2.92232 23.7242 5.45406 26.2559C7.9858 28.7877 11.4196 30.21 15 30.21C18.5804 30.21 22.0142 28.7877 24.5459 26.2559C27.0777 23.7242 28.5 20.2904 28.5 16.71C28.5 13.1296 27.0777 9.6958 24.5459 7.16406C22.0142 4.63232 18.5804 3.21 15 3.21V3.21ZM15.75 9.21H13.5V18.21L20.625 22.485L21.75 20.64L15.75 17.085V9.21ZM8.82 2.295L6.9 0L0 5.775L1.935 8.07L8.82 2.295ZM30 5.79L23.1 0L21.165 2.295L28.065 8.085L30 5.79Z" fill="black"/>
</svg>
