<svg width="30" height="30" viewBox="0 0 30 30" fill="none" xmlns="http://www.w3.org/2000/svg">
<path d="M25.7813 6.89375C24.5313 4.99125 22.1375 4.80625 20.285 5.86375L20.0525 5.9975L19.9575 5.99375C18.655 5.99375 17.445 6.6325 16.7025 7.705L16.66 7.76125C16.1225 8.5675 15.7563 9.30625 15.4038 10.0225C15.085 10.6675 14.7788 11.285 14.3738 11.8762C13.9675 11.2825 13.6613 10.6637 13.3413 10.0187C12.9875 9.305 12.6225 8.56625 12.0863 7.76125L12.045 7.70625C11.6822 7.17829 11.1965 6.74652 10.6296 6.44818C10.0628 6.14983 9.43184 5.99387 8.79127 5.99375C7.74186 5.99474 6.73571 6.41197 5.99355 7.15389C5.25139 7.89582 4.83384 8.90184 4.83252 9.95125C4.83351 11.001 5.25087 12.0075 5.99303 12.7499C6.73519 13.4922 7.74153 13.9099 8.79127 13.9112C9.76002 13.9112 10.685 13.5525 11.4 12.9225L12.215 14.42C10.1888 16.765 8.49127 19.4875 8.44127 19.5712C6.89627 21.6987 9.32252 25.0963 9.42752 25.2388C9.48529 25.319 9.56134 25.3843 9.64938 25.4293C9.73741 25.4743 9.8349 25.4977 9.93377 25.4975C10.0458 25.496 10.1555 25.4651 10.2518 25.4078C10.3481 25.3506 10.4277 25.269 10.4825 25.1712L14.3725 18.025L18.2638 25.1712C18.3142 25.264 18.3873 25.3424 18.4763 25.3992C18.5653 25.4561 18.6672 25.4895 18.7725 25.4963C18.8782 25.5057 18.9846 25.4868 19.0806 25.4416C19.1766 25.3963 19.2588 25.3263 19.3188 25.2388C19.4225 25.0963 21.8488 21.6987 20.33 19.6087L19.9263 18.9575C18.5813 16.7875 18.4425 16.5625 16.5325 14.415L17.3463 12.9212C18.067 13.5575 18.9949 13.909 19.9563 13.91C21.006 13.9087 22.0123 13.491 22.7545 12.7486C23.4967 12.0062 23.914 10.9997 23.915 9.95C23.9151 9.16125 23.6767 8.3909 23.2313 7.74C23.8213 7.4025 24.4775 7.58625 25.0513 7.85875C25.6338 8.0975 26.1725 7.3875 25.7813 6.89375V6.89375ZM8.75002 11.25C8.4185 11.25 8.10056 11.1183 7.86614 10.8839C7.63172 10.6495 7.50002 10.3315 7.50002 10C7.50002 9.66848 7.63172 9.35054 7.86614 9.11611C8.10056 8.88169 8.4185 8.75 8.75002 8.75C9.08154 8.75 9.39948 8.88169 9.6339 9.11611C9.86832 9.35054 10 9.66848 10 10C10 10.3315 9.86832 10.6495 9.6339 10.8839C9.39948 11.1183 9.08154 11.25 8.75002 11.25ZM14.375 15.4937C14.2093 15.4937 14.0503 15.4279 13.9331 15.3107C13.8159 15.1935 13.75 15.0345 13.75 14.8687C13.75 14.703 13.8159 14.544 13.9331 14.4268C14.0503 14.3096 14.2093 14.2437 14.375 14.2437C14.5408 14.2437 14.6998 14.3096 14.817 14.4268C14.9342 14.544 15 14.703 15 14.8687C15 15.0345 14.9342 15.1935 14.817 15.3107C14.6998 15.4279 14.5408 15.4937 14.375 15.4937ZM20 11.25C19.6685 11.25 19.3506 11.1183 19.1161 10.8839C18.8817 10.6495 18.75 10.3315 18.75 10C18.75 9.66848 18.8817 9.35054 19.1161 9.11611C19.3506 8.88169 19.6685 8.75 20 8.75C20.3315 8.75 20.6495 8.88169 20.8839 9.11611C21.1183 9.35054 21.25 9.66848 21.25 10C21.25 10.3315 21.1183 10.6495 20.8839 10.8839C20.6495 11.1183 20.3315 11.25 20 11.25Z" fill="black"/>
</svg>
