<svg width="25" height="26" viewBox="0 0 25 26" fill="none" xmlns="http://www.w3.org/2000/svg">
<path d="M12.5 22.675C10.1794 22.675 7.95376 21.7531 6.31282 20.1122C4.67187 18.4712 3.75 16.2456 3.75 13.925C3.75 11.6044 4.67187 9.37876 6.31282 7.73782C7.95376 6.09687 10.1794 5.175 12.5 5.175C14.8206 5.175 17.0462 6.09687 18.6872 7.73782C20.3281 9.37876 21.25 11.6044 21.25 13.925C21.25 16.2456 20.3281 18.4712 18.6872 20.1122C17.0462 21.7531 14.8206 22.675 12.5 22.675ZM12.5 2.675C9.51631 2.675 6.65483 3.86026 4.54505 5.97005C2.43526 8.07983 1.25 10.9413 1.25 13.925C1.25 16.9087 2.43526 19.7702 4.54505 21.8799C6.65483 23.9897 9.51631 25.175 12.5 25.175C15.4837 25.175 18.3452 23.9897 20.455 21.8799C22.5647 19.7702 23.75 16.9087 23.75 13.925C23.75 10.9413 22.5647 8.07983 20.455 5.97005C18.3452 3.86026 15.4837 2.675 12.5 2.675V2.675ZM13.125 7.675H11.25V15.175L17.1875 18.7375L18.125 17.2L13.125 14.2375V7.675ZM7.35 1.9125L5.75 0L0 4.8125L1.6125 6.725L7.35 1.9125ZM25 4.825L19.25 0L17.6375 1.9125L23.3875 6.7375L25 4.825Z" fill="black"/>
</svg>
