<svg width="35" height="34" viewBox="0 0 35 34" fill="none" xmlns="http://www.w3.org/2000/svg">
<path d="M34.2756 16.2527L18.3732 0.361913C18.2587 0.247187 18.1227 0.156169 17.973 0.0940672C17.8233 0.0319656 17.6628 0 17.5007 0C17.3386 0 17.1781 0.0319656 17.0284 0.0940672C16.8787 0.156169 16.7427 0.247187 16.6282 0.361913L0.725819 16.2527C0.26253 16.716 0 17.3453 0 18.0016C0 19.3645 1.10803 20.4725 2.47087 20.4725H4.14643V31.8115C4.14643 32.4948 4.69852 33.0469 5.38187 33.0469H15.0299V24.3989H19.3539V33.0469H29.6196C30.3029 33.0469 30.855 32.4948 30.855 31.8115V20.4725H32.5306C33.1869 20.4725 33.8162 20.2138 34.2795 19.7467C35.2408 18.7815 35.2408 17.2179 34.2756 16.2527V16.2527Z" fill="black"/>
</svg>
