<svg width="40" height="40" viewBox="0 0 40 40" fill="none" xmlns="http://www.w3.org/2000/svg">
<path d="M39.2652 31.3333L30.1378 23.0344C29.7064 22.6423 29.1394 22.4331 28.5566 22.4511C27.9739 22.4692 27.4209 22.7129 27.0145 23.131L21.6414 28.6568C20.348 28.4098 17.7479 27.5992 15.0715 24.9295C12.395 22.2508 11.5844 19.6439 11.3442 18.3596L16.8655 12.9842C17.2841 12.5781 17.5282 12.025 17.5462 11.4421C17.5642 10.8592 17.3547 10.2921 16.9621 9.86091L8.66546 0.735785C8.27262 0.303233 7.72663 0.0408573 7.14345 0.00438246C6.56028 -0.0320924 5.98585 0.160207 5.54217 0.54044L0.66975 4.71905C0.281552 5.10865 0.0498503 5.62718 0.018596 6.17628C-0.0150844 6.73762 -0.657256 20.0346 9.65342 30.3498C18.6483 39.3424 29.9155 40.0003 33.0186 40.0003C33.4722 40.0003 33.7506 39.9869 33.8247 39.9824C34.3737 39.9516 34.892 39.7189 35.2797 39.329L39.456 34.4543C39.8378 34.012 40.0315 33.4381 39.9958 32.8549C39.9602 32.2718 39.698 31.7257 39.2652 31.3333V31.3333Z" fill="black"/>
</svg>
