<svg width="375" height="812" viewBox="0 0 375 812" fill="none" xmlns="http://www.w3.org/2000/svg">
<g opacity="0.2" clip-path="url(#clip0)">
<rect width="375" height="812" fill="white"/>
<rect x="320.649" y="-51.6763" width="45.6268" height="1139.91" transform="rotate(45 320.649 -51.6763)" fill="#0013C0"/>
<rect x="605.817" y="181.781" width="45.6268" height="1139.91" transform="rotate(45 605.817 181.781)" fill="#0013C0"/>
<rect x="563.232" y="-35.7069" width="45.6268" height="1139.91" transform="rotate(45 563.232 -35.7069)" fill="#0013C0"/>
<rect x="848.4" y="197.75" width="45.6268" height="1139.91" transform="rotate(45 848.4 197.75)" fill="#0013C0"/>
<rect x="116.851" y="-96.5427" width="45.6268" height="1139.91" transform="rotate(45 116.851 -96.5427)" fill="#0013C0"/>
<rect x="417.988" y="-19.7375" width="45.6268" height="1139.91" transform="rotate(45 417.988 -19.7375)" fill="#CC0000"/>
<rect x="703.154" y="213.72" width="45.6268" height="1139.91" transform="rotate(45 703.154 213.72)" fill="#CC0000"/>
<rect x="-28.3955" y="-80.5733" width="45.6268" height="1139.91" transform="rotate(45 -28.3955 -80.5733)" fill="#CC0000"/>
<rect x="660.57" y="-3.76816" width="45.6268" height="1139.91" transform="rotate(45 660.57 -3.76816)" fill="#CC0000"/>
<rect x="945.737" y="229.689" width="45.6268" height="1139.91" transform="rotate(45 945.737 229.689)" fill="#CC0000"/>
<rect x="214.188" y="-64.6039" width="45.6268" height="1139.91" transform="rotate(45 214.188 -64.6039)" fill="#CC0000"/>
<rect x="352.588" y="-19.7375" width="45.6268" height="1139.91" transform="rotate(45 352.588 -19.7375)" fill="white"/>
<rect x="637.756" y="213.72" width="45.6268" height="1139.91" transform="rotate(45 637.756 213.72)" fill="white"/>
<rect x="595.17" y="-3.76816" width="45.6268" height="1139.91" transform="rotate(45 595.17 -3.76816)" fill="white"/>
<rect x="880.339" y="229.689" width="45.6268" height="1139.91" transform="rotate(45 880.339 229.689)" fill="white"/>
<rect x="148.789" y="-64.6039" width="45.6268" height="1139.91" transform="rotate(45 148.789 -64.6039)" fill="white"/>
<rect x="483.386" y="-19.7375" width="45.6268" height="1139.91" transform="rotate(45 483.386 -19.7375)" fill="white"/>
<rect x="768.553" y="213.72" width="45.6268" height="1139.91" transform="rotate(45 768.553 213.72)" fill="white"/>
<rect x="37.0039" y="-80.5733" width="45.6268" height="1139.91" transform="rotate(45 37.0039 -80.5733)" fill="white"/>
<rect x="725.967" y="-3.76816" width="45.6268" height="1139.91" transform="rotate(45 725.967 -3.76816)" fill="white"/>
<rect x="-5.58203" y="-298.061" width="45.6268" height="1139.91" transform="rotate(45 -5.58203 -298.061)" fill="white"/>
</g>
<defs>
<clipPath id="clip0">
<rect width="375" height="812" fill="white"/>
</clipPath>
</defs>
</svg>
