<svg width="414" height="896" viewBox="0 0 414 896" fill="none" xmlns="http://www.w3.org/2000/svg">
<g clip-path="url(#clip0)">
<rect width="414" height="896" fill="white"/>
<g opacity="0.3" clip-path="url(#clip1)">
<path d="M290.265 200.146C292.689 203.767 295.408 206.231 298.131 207.262C305.646 210.113 314.103 206.38 316.981 198.92C317.672 197.147 318 195.255 317.948 193.355C317.896 191.455 317.464 189.584 316.677 187.85C315.9 186.112 314.784 184.544 313.391 183.237C311.999 181.929 310.359 180.909 308.566 180.234C304.55 178.709 300.86 178.126 297.081 180.193C296.629 180.439 295.758 178.971 295.564 178.501L293.336 174.411L281.895 180.087C286.763 192.572 289.596 199.152 290.265 200.146V200.146ZM299.331 186.669C300.165 186.146 301.096 185.791 302.069 185.627C303.043 185.463 304.039 185.492 305.002 185.712C305.965 185.927 306.875 186.33 307.68 186.897C308.485 187.464 309.169 188.183 309.692 189.013C310.22 189.841 310.577 190.764 310.743 191.729C310.909 192.694 310.88 193.682 310.658 194.635C310.44 195.59 310.033 196.493 309.462 197.291C308.89 198.089 308.164 198.767 307.327 199.285C306.492 199.809 305.561 200.163 304.588 200.327C303.614 200.491 302.617 200.462 301.655 200.242C300.692 200.026 299.782 199.623 298.977 199.057C298.172 198.49 297.489 197.771 296.966 196.941C296.438 196.113 296.081 195.19 295.915 194.225C295.75 193.26 295.779 192.272 296.001 191.318C296.219 190.363 296.626 189.461 297.197 188.663C297.769 187.866 298.494 187.188 299.331 186.669V186.669Z" fill="#EA5A47"/>
<path d="M293.067 174.885L272.838 127.661C271.153 130.888 269.094 134.15 269.126 138.536C269.168 144.049 271.573 150.424 271.573 150.424C271.573 150.424 281.668 177.415 282.181 178.747C282.199 178.796 293.067 174.885 293.067 174.885V174.885Z" fill="#D0CFCE"/>
<path d="M300.324 128.331C300.324 128.331 288.905 151.25 289.186 150.459L289.177 150.459L286.582 156.722L295.425 176.99L298.774 167.526L298.758 167.508C298.681 167.66 303.019 150.649 303.115 150.355C305.313 143.522 304.113 135.607 300.326 128.331L300.324 128.331Z" fill="#9B9B9A"/>
<path d="M265.545 181.584C258.877 184.115 254.033 193.461 256.583 200.069C259.136 206.683 268.163 211.95 274.832 209.421C277.246 208.505 280.477 206.189 282.628 202.975C282.722 202.837 286.174 198.95 286.021 199.669L287.401 195.921C285.375 191.274 279.916 177.94 279.515 176.893L277.906 181.429L277.913 181.449C278.213 181.787 268.908 180.31 265.545 181.584V181.584ZM276.953 193.452C277.168 194.373 277.196 195.327 277.036 196.259C276.876 197.192 276.532 198.083 276.022 198.882C274.996 200.496 273.367 201.641 271.491 202.065C269.615 202.49 267.645 202.16 266.014 201.147C265.205 200.647 264.504 199.992 263.952 199.221C263.4 198.45 263.007 197.578 262.798 196.655C262.584 195.734 262.556 194.78 262.716 193.848C262.876 192.917 263.221 192.026 263.731 191.227C264.236 190.425 264.896 189.73 265.674 189.183C266.451 188.635 267.331 188.246 268.261 188.037C269.19 187.824 270.152 187.796 271.092 187.955C272.032 188.114 272.931 188.455 273.737 188.961C274.546 189.461 275.247 190.116 275.8 190.887C276.352 191.658 276.744 192.53 276.954 193.453L276.953 193.452Z" fill="#D22F27"/>
<path d="M281.908 180.449C277.591 169.322 272.881 156.605 271.669 152.832C269.476 146.023 266.636 135.004 273.19 126.258L293.399 174.644" stroke="black" stroke-width="2" stroke-miterlimit="10" stroke-linecap="round" stroke-linejoin="round"/>
<path d="M308.147 179.863C306.17 179.112 304.051 178.798 301.939 178.944C299.827 179.091 297.773 179.694 295.921 180.711L293.399 174.644L281.907 180.449C285.447 189.57 289.063 198.471 290.009 199.883C291.618 202.289 294.252 205.471 297.746 206.797C301.34 208.126 305.318 207.993 308.814 206.428C312.31 204.863 315.041 201.992 316.412 198.441C317.783 194.89 317.684 190.945 316.136 187.466C314.589 183.986 311.717 181.254 308.147 179.863V179.863ZM309.486 189.141C309.995 189.943 310.338 190.836 310.498 191.769C310.658 192.703 310.631 193.658 310.418 194.581C310.206 195.504 309.812 196.377 309.259 197.149C308.707 197.921 308.006 198.578 307.197 199.081C306.388 199.585 305.488 199.926 304.546 200.085C303.604 200.243 302.641 200.216 301.71 200.005C300.778 199.795 299.898 199.404 299.12 198.856C298.341 198.308 297.678 197.614 297.17 196.812C296.144 195.193 295.809 193.236 296.238 191.372C296.668 189.507 297.826 187.889 299.46 186.871C301.093 185.854 303.067 185.522 304.947 185.948C306.828 186.373 308.46 187.522 309.486 189.141Z" stroke="black" stroke-width="2" stroke-miterlimit="10" stroke-linecap="round" stroke-linejoin="round"/>
<path d="M276.718 182.495C274.919 181.606 272.953 181.098 270.946 181.003C268.938 180.907 266.933 181.227 265.057 181.94C263.273 182.618 261.641 183.636 260.254 184.939C258.867 186.241 257.753 187.802 256.974 189.531C255.402 193.023 255.294 196.992 256.673 200.564C258.052 204.136 260.806 207.018 264.329 208.577C267.852 210.135 271.856 210.243 275.458 208.875C278.954 207.548 281.587 204.367 283.196 201.961C283.46 201.567 283.905 200.654 284.489 199.342L276.718 182.495ZM276.034 198.89C275.526 199.692 274.864 200.386 274.085 200.934C273.306 201.482 272.426 201.873 271.495 202.084C270.564 202.294 269.6 202.321 268.659 202.163C267.717 202.004 266.816 201.663 266.008 201.16C265.199 200.656 264.498 199.999 263.945 199.227C263.393 198.455 262.999 197.582 262.786 196.659C262.574 195.736 262.547 194.781 262.707 193.847C262.866 192.914 263.21 192.021 263.718 191.219C264.744 189.6 266.377 188.451 268.258 188.026C270.138 187.6 272.112 187.932 273.745 188.95C275.378 189.967 276.537 191.586 276.966 193.45C277.396 195.314 277.061 197.271 276.034 198.89V198.89Z" stroke="black" stroke-width="2" stroke-miterlimit="10" stroke-linecap="round" stroke-linejoin="round"/>
<path d="M290.68 150.985L300.014 128.335C306.569 137.082 303.728 148.1 301.537 154.912C300.819 157.139 299.709 160.514 297.355 166.811" stroke="black" stroke-width="2" stroke-miterlimit="10" stroke-linecap="round" stroke-linejoin="round"/>
</g>
<g opacity="0.3" clip-path="url(#clip2)">
<path d="M290.265 656.146C292.689 659.767 295.408 662.231 298.131 663.262C305.646 666.113 314.103 662.38 316.981 654.92C317.672 653.147 318 651.255 317.948 649.355C317.896 647.455 317.464 645.584 316.677 643.85C315.9 642.112 314.784 640.544 313.391 639.237C311.999 637.929 310.359 636.909 308.566 636.234C304.55 634.709 300.86 634.126 297.081 636.193C296.629 636.439 295.758 634.971 295.564 634.501L293.336 630.411L281.895 636.087C286.763 648.572 289.596 655.152 290.265 656.146V656.146ZM299.331 642.669C300.165 642.146 301.096 641.791 302.069 641.627C303.043 641.463 304.039 641.492 305.002 641.712C305.965 641.927 306.875 642.33 307.68 642.897C308.485 643.464 309.169 644.183 309.692 645.013C310.22 645.841 310.577 646.764 310.743 647.729C310.909 648.694 310.88 649.682 310.658 650.635C310.44 651.59 310.033 652.493 309.462 653.291C308.89 654.089 308.164 654.767 307.327 655.285C306.492 655.809 305.561 656.163 304.588 656.327C303.614 656.491 302.617 656.462 301.655 656.242C300.692 656.026 299.782 655.623 298.977 655.057C298.172 654.49 297.489 653.771 296.966 652.941C296.438 652.113 296.081 651.19 295.915 650.225C295.75 649.26 295.779 648.272 296.001 647.318C296.219 646.363 296.626 645.461 297.197 644.663C297.769 643.866 298.494 643.188 299.331 642.669V642.669Z" fill="#EA5A47"/>
<path d="M293.067 630.885L272.838 583.661C271.153 586.888 269.094 590.15 269.126 594.536C269.168 600.049 271.573 606.424 271.573 606.424C271.573 606.424 281.668 633.415 282.181 634.747C282.199 634.796 293.067 630.885 293.067 630.885V630.885Z" fill="#D0CFCE"/>
<path d="M300.324 584.331C300.324 584.331 288.905 607.25 289.186 606.459L289.177 606.459L286.582 612.722L295.425 632.99L298.774 623.526L298.758 623.508C298.681 623.66 303.019 606.649 303.115 606.355C305.313 599.522 304.113 591.607 300.326 584.331L300.324 584.331Z" fill="#9B9B9A"/>
<path d="M265.545 637.584C258.877 640.115 254.033 649.461 256.583 656.069C259.136 662.683 268.163 667.95 274.832 665.421C277.246 664.505 280.477 662.189 282.628 658.975C282.722 658.837 286.174 654.95 286.021 655.669L287.401 651.921C285.375 647.274 279.916 633.94 279.515 632.893L277.906 637.429L277.913 637.449C278.213 637.787 268.908 636.31 265.545 637.584V637.584ZM276.953 649.452C277.168 650.373 277.196 651.327 277.036 652.259C276.876 653.192 276.532 654.083 276.022 654.882C274.996 656.496 273.367 657.641 271.491 658.065C269.615 658.49 267.645 658.16 266.014 657.147C265.205 656.647 264.504 655.992 263.952 655.221C263.4 654.45 263.007 653.578 262.798 652.655C262.584 651.734 262.556 650.78 262.716 649.848C262.876 648.917 263.221 648.026 263.731 647.227C264.236 646.425 264.896 645.73 265.674 645.183C266.451 644.635 267.331 644.246 268.261 644.037C269.19 643.824 270.152 643.796 271.092 643.955C272.032 644.114 272.931 644.455 273.737 644.961C274.546 645.461 275.247 646.116 275.8 646.887C276.352 647.658 276.744 648.53 276.954 649.453L276.953 649.452Z" fill="#D22F27"/>
<path d="M281.908 636.449C277.591 625.322 272.881 612.605 271.669 608.832C269.476 602.023 266.636 591.004 273.19 582.258L293.399 630.644" stroke="black" stroke-width="2" stroke-miterlimit="10" stroke-linecap="round" stroke-linejoin="round"/>
<path d="M308.147 635.863C306.17 635.112 304.051 634.798 301.939 634.944C299.827 635.091 297.773 635.694 295.921 636.711L293.399 630.644L281.907 636.449C285.447 645.57 289.063 654.471 290.009 655.883C291.618 658.289 294.252 661.471 297.746 662.797C301.34 664.126 305.318 663.993 308.814 662.428C312.31 660.863 315.041 657.992 316.412 654.441C317.783 650.89 317.684 646.945 316.136 643.466C314.589 639.986 311.717 637.254 308.147 635.863V635.863ZM309.486 645.141C309.995 645.943 310.338 646.836 310.498 647.769C310.658 648.703 310.631 649.658 310.418 650.581C310.206 651.504 309.812 652.377 309.259 653.149C308.707 653.921 308.006 654.578 307.197 655.081C306.388 655.585 305.488 655.926 304.546 656.085C303.604 656.243 302.641 656.216 301.71 656.005C300.778 655.795 299.898 655.404 299.12 654.856C298.341 654.308 297.678 653.614 297.17 652.812C296.144 651.193 295.809 649.236 296.238 647.372C296.668 645.507 297.826 643.889 299.46 642.871C301.093 641.854 303.067 641.522 304.947 641.948C306.828 642.373 308.46 643.522 309.486 645.141Z" stroke="black" stroke-width="2" stroke-miterlimit="10" stroke-linecap="round" stroke-linejoin="round"/>
<path d="M276.718 638.495C274.919 637.606 272.953 637.098 270.946 637.003C268.938 636.907 266.933 637.226 265.057 637.94C263.273 638.618 261.641 639.636 260.254 640.939C258.867 642.241 257.753 643.802 256.974 645.531C255.402 649.023 255.294 652.992 256.673 656.564C258.052 660.136 260.806 663.018 264.329 664.577C267.852 666.135 271.856 666.243 275.458 664.875C278.954 663.548 281.587 660.367 283.196 657.961C283.46 657.567 283.905 656.654 284.489 655.342L276.718 638.495ZM276.034 654.89C275.526 655.692 274.864 656.386 274.085 656.934C273.306 657.482 272.426 657.873 271.495 658.084C270.564 658.294 269.6 658.321 268.659 658.163C267.717 658.004 266.816 657.663 266.008 657.16C265.199 656.656 264.498 655.999 263.945 655.227C263.393 654.455 262.999 653.582 262.786 652.659C262.574 651.736 262.547 650.781 262.707 649.847C262.866 648.914 263.21 648.021 263.718 647.219C264.744 645.6 266.377 644.451 268.258 644.026C270.138 643.6 272.112 643.932 273.745 644.95C275.378 645.967 276.537 647.586 276.966 649.45C277.396 651.314 277.061 653.271 276.034 654.89V654.89Z" stroke="black" stroke-width="2" stroke-miterlimit="10" stroke-linecap="round" stroke-linejoin="round"/>
<path d="M290.68 606.985L300.014 584.335C306.569 593.082 303.728 604.1 301.537 610.912C300.819 613.139 299.709 616.514 297.355 622.811" stroke="black" stroke-width="2" stroke-miterlimit="10" stroke-linecap="round" stroke-linejoin="round"/>
</g>
<g opacity="0.3" clip-path="url(#clip3)">
<path d="M290.265 428.146C292.689 431.767 295.408 434.231 298.131 435.262C305.646 438.113 314.103 434.38 316.981 426.92C317.672 425.147 318 423.255 317.948 421.355C317.896 419.455 317.464 417.584 316.677 415.85C315.9 414.112 314.784 412.544 313.391 411.237C311.999 409.929 310.359 408.909 308.566 408.234C304.55 406.709 300.86 406.126 297.081 408.193C296.629 408.439 295.758 406.971 295.564 406.501L293.336 402.411L281.895 408.087C286.763 420.572 289.596 427.152 290.265 428.146V428.146ZM299.331 414.669C300.165 414.146 301.096 413.791 302.069 413.627C303.043 413.463 304.039 413.492 305.002 413.712C305.965 413.927 306.875 414.33 307.68 414.897C308.485 415.464 309.169 416.183 309.692 417.013C310.22 417.841 310.577 418.764 310.743 419.729C310.909 420.694 310.88 421.682 310.658 422.635C310.44 423.59 310.033 424.493 309.462 425.291C308.89 426.089 308.164 426.767 307.327 427.285C306.492 427.809 305.561 428.163 304.588 428.327C303.614 428.491 302.617 428.462 301.655 428.242C300.692 428.026 299.782 427.623 298.977 427.057C298.172 426.49 297.489 425.771 296.966 424.941C296.438 424.113 296.081 423.19 295.915 422.225C295.75 421.26 295.779 420.272 296.001 419.318C296.219 418.363 296.626 417.461 297.197 416.663C297.769 415.866 298.494 415.188 299.331 414.669V414.669Z" fill="#EA5A47"/>
<path d="M293.067 402.885L272.838 355.661C271.153 358.888 269.094 362.15 269.126 366.536C269.168 372.049 271.573 378.424 271.573 378.424C271.573 378.424 281.668 405.415 282.181 406.747C282.199 406.796 293.067 402.885 293.067 402.885V402.885Z" fill="#D0CFCE"/>
<path d="M300.324 356.331C300.324 356.331 288.905 379.25 289.186 378.459L289.177 378.459L286.582 384.722L295.425 404.99L298.774 395.526L298.758 395.508C298.681 395.66 303.019 378.649 303.115 378.355C305.313 371.522 304.113 363.607 300.326 356.331L300.324 356.331Z" fill="#9B9B9A"/>
<path d="M265.545 409.584C258.877 412.115 254.033 421.461 256.583 428.069C259.136 434.683 268.163 439.95 274.832 437.421C277.246 436.505 280.477 434.189 282.628 430.975C282.722 430.837 286.174 426.951 286.021 427.669L287.401 423.921C285.375 419.274 279.916 405.94 279.515 404.893L277.906 409.429L277.913 409.449C278.213 409.787 268.908 408.31 265.545 409.584V409.584ZM276.953 421.452C277.168 422.373 277.196 423.327 277.036 424.259C276.876 425.192 276.532 426.083 276.022 426.882C274.996 428.496 273.367 429.641 271.491 430.065C269.615 430.49 267.645 430.16 266.014 429.147C265.205 428.647 264.504 427.992 263.952 427.221C263.4 426.45 263.007 425.578 262.798 424.655C262.584 423.734 262.556 422.78 262.716 421.848C262.876 420.917 263.221 420.026 263.731 419.227C264.236 418.425 264.896 417.73 265.674 417.183C266.451 416.635 267.331 416.246 268.261 416.037C269.19 415.824 270.152 415.796 271.092 415.955C272.032 416.114 272.931 416.455 273.737 416.961C274.546 417.461 275.247 418.116 275.8 418.887C276.352 419.658 276.744 420.53 276.954 421.453L276.953 421.452Z" fill="#D22F27"/>
<path d="M281.908 408.449C277.591 397.322 272.881 384.605 271.669 380.832C269.476 374.023 266.636 363.004 273.19 354.258L293.399 402.644" stroke="black" stroke-width="2" stroke-miterlimit="10" stroke-linecap="round" stroke-linejoin="round"/>
<path d="M308.147 407.863C306.17 407.112 304.051 406.798 301.939 406.944C299.827 407.091 297.773 407.694 295.921 408.711L293.399 402.644L281.907 408.449C285.447 417.57 289.063 426.471 290.009 427.883C291.618 430.289 294.252 433.471 297.746 434.797C301.34 436.126 305.318 435.993 308.814 434.428C312.31 432.863 315.041 429.992 316.412 426.441C317.783 422.89 317.684 418.945 316.136 415.466C314.589 411.986 311.717 409.254 308.147 407.863V407.863ZM309.486 417.141C309.995 417.943 310.338 418.836 310.498 419.769C310.658 420.703 310.631 421.658 310.418 422.581C310.206 423.504 309.812 424.377 309.259 425.149C308.707 425.921 308.006 426.578 307.197 427.081C306.388 427.585 305.488 427.926 304.546 428.085C303.604 428.243 302.641 428.216 301.71 428.005C300.778 427.795 299.898 427.404 299.12 426.856C298.341 426.308 297.678 425.614 297.17 424.812C296.144 423.193 295.809 421.236 296.238 419.372C296.668 417.507 297.826 415.889 299.46 414.871C301.093 413.854 303.067 413.522 304.947 413.948C306.828 414.373 308.46 415.522 309.486 417.141Z" stroke="black" stroke-width="2" stroke-miterlimit="10" stroke-linecap="round" stroke-linejoin="round"/>
<path d="M276.718 410.495C274.919 409.606 272.953 409.098 270.946 409.003C268.938 408.907 266.933 409.227 265.057 409.94C263.273 410.618 261.641 411.636 260.254 412.939C258.867 414.241 257.753 415.802 256.974 417.531C255.402 421.023 255.294 424.992 256.673 428.564C258.052 432.136 260.806 435.018 264.329 436.577C267.852 438.135 271.856 438.243 275.458 436.875C278.954 435.548 281.587 432.367 283.196 429.961C283.46 429.567 283.905 428.654 284.489 427.342L276.718 410.495ZM276.034 426.89C275.526 427.692 274.864 428.386 274.085 428.934C273.306 429.482 272.426 429.873 271.495 430.084C270.564 430.294 269.6 430.321 268.659 430.163C267.717 430.004 266.816 429.663 266.008 429.16C265.199 428.656 264.498 427.999 263.945 427.227C263.393 426.455 262.999 425.582 262.786 424.659C262.574 423.736 262.547 422.781 262.707 421.847C262.866 420.914 263.21 420.021 263.718 419.219C264.744 417.6 266.377 416.451 268.258 416.026C270.138 415.6 272.112 415.932 273.745 416.95C275.378 417.967 276.537 419.586 276.966 421.45C277.396 423.314 277.061 425.271 276.034 426.89V426.89Z" stroke="black" stroke-width="2" stroke-miterlimit="10" stroke-linecap="round" stroke-linejoin="round"/>
<path d="M290.68 378.985L300.014 356.335C306.569 365.082 303.728 376.1 301.537 382.912C300.819 385.139 299.709 388.514 297.355 394.811" stroke="black" stroke-width="2" stroke-miterlimit="10" stroke-linecap="round" stroke-linejoin="round"/>
</g>
<g opacity="0.3" clip-path="url(#clip4)">
<path d="M290.265 884.146C292.689 887.767 295.408 890.231 298.131 891.262C305.646 894.113 314.103 890.38 316.981 882.92C317.672 881.147 318 879.255 317.948 877.355C317.896 875.455 317.464 873.584 316.677 871.85C315.9 870.112 314.784 868.544 313.391 867.237C311.999 865.929 310.359 864.909 308.566 864.234C304.55 862.709 300.86 862.126 297.081 864.193C296.629 864.439 295.758 862.971 295.564 862.501L293.336 858.411L281.895 864.087C286.763 876.572 289.596 883.152 290.265 884.146V884.146ZM299.331 870.669C300.165 870.146 301.096 869.791 302.069 869.627C303.043 869.463 304.039 869.492 305.002 869.712C305.965 869.927 306.875 870.33 307.68 870.897C308.485 871.464 309.169 872.183 309.692 873.013C310.22 873.841 310.577 874.764 310.743 875.729C310.909 876.694 310.88 877.682 310.658 878.635C310.44 879.59 310.033 880.493 309.462 881.291C308.89 882.089 308.164 882.767 307.327 883.285C306.492 883.809 305.561 884.163 304.588 884.327C303.614 884.491 302.617 884.462 301.655 884.242C300.692 884.026 299.782 883.623 298.977 883.057C298.172 882.49 297.489 881.771 296.966 880.941C296.438 880.113 296.081 879.19 295.915 878.225C295.75 877.26 295.779 876.272 296.001 875.318C296.219 874.363 296.626 873.461 297.197 872.663C297.769 871.866 298.494 871.188 299.331 870.669V870.669Z" fill="#EA5A47"/>
<path d="M293.067 858.885L272.838 811.661C271.153 814.888 269.094 818.15 269.126 822.536C269.168 828.049 271.573 834.424 271.573 834.424C271.573 834.424 281.668 861.415 282.181 862.747C282.199 862.796 293.067 858.885 293.067 858.885V858.885Z" fill="#D0CFCE"/>
<path d="M300.324 812.331C300.324 812.331 288.905 835.25 289.186 834.459L289.177 834.459L286.582 840.722L295.425 860.99L298.774 851.526L298.758 851.508C298.681 851.66 303.019 834.649 303.115 834.355C305.313 827.522 304.113 819.607 300.326 812.331L300.324 812.331Z" fill="#9B9B9A"/>
<path d="M265.545 865.584C258.877 868.115 254.033 877.461 256.583 884.069C259.136 890.683 268.163 895.95 274.832 893.421C277.246 892.505 280.477 890.189 282.628 886.975C282.722 886.837 286.174 882.95 286.021 883.669L287.401 879.921C285.375 875.274 279.916 861.94 279.515 860.893L277.906 865.429L277.913 865.449C278.213 865.787 268.908 864.31 265.545 865.584V865.584ZM276.953 877.452C277.168 878.373 277.196 879.327 277.036 880.259C276.876 881.192 276.532 882.083 276.022 882.882C274.996 884.496 273.367 885.641 271.491 886.065C269.615 886.49 267.645 886.16 266.014 885.147C265.205 884.647 264.504 883.992 263.952 883.221C263.4 882.45 263.007 881.578 262.798 880.655C262.584 879.734 262.556 878.78 262.716 877.848C262.876 876.917 263.221 876.026 263.731 875.227C264.236 874.425 264.896 873.73 265.674 873.183C266.451 872.635 267.331 872.246 268.261 872.037C269.19 871.824 270.152 871.796 271.092 871.955C272.032 872.114 272.931 872.455 273.737 872.961C274.546 873.461 275.247 874.116 275.8 874.887C276.352 875.658 276.744 876.53 276.954 877.453L276.953 877.452Z" fill="#D22F27"/>
<path d="M281.908 864.449C277.591 853.322 272.881 840.605 271.669 836.832C269.476 830.023 266.636 819.004 273.19 810.258L293.399 858.644" stroke="black" stroke-width="2" stroke-miterlimit="10" stroke-linecap="round" stroke-linejoin="round"/>
<path d="M308.147 863.863C306.17 863.112 304.051 862.798 301.939 862.944C299.827 863.091 297.773 863.694 295.921 864.711L293.399 858.644L281.907 864.449C285.447 873.57 289.063 882.471 290.009 883.883C291.618 886.289 294.252 889.471 297.746 890.797C301.34 892.126 305.318 891.993 308.814 890.428C312.31 888.863 315.041 885.992 316.412 882.441C317.783 878.89 317.684 874.945 316.136 871.466C314.589 867.986 311.717 865.254 308.147 863.863V863.863ZM309.486 873.141C309.995 873.943 310.338 874.836 310.498 875.769C310.658 876.703 310.631 877.658 310.418 878.581C310.206 879.504 309.812 880.377 309.259 881.149C308.707 881.921 308.006 882.578 307.197 883.081C306.388 883.585 305.488 883.926 304.546 884.085C303.604 884.243 302.641 884.216 301.71 884.005C300.778 883.795 299.898 883.404 299.12 882.856C298.341 882.308 297.678 881.614 297.17 880.812C296.144 879.193 295.809 877.236 296.238 875.372C296.668 873.507 297.826 871.889 299.46 870.871C301.093 869.854 303.067 869.522 304.947 869.948C306.828 870.373 308.46 871.522 309.486 873.141Z" stroke="black" stroke-width="2" stroke-miterlimit="10" stroke-linecap="round" stroke-linejoin="round"/>
<path d="M276.718 866.495C274.919 865.606 272.953 865.098 270.946 865.003C268.938 864.907 266.933 865.227 265.057 865.94C263.273 866.618 261.641 867.636 260.254 868.939C258.867 870.241 257.753 871.802 256.974 873.531C255.402 877.023 255.294 880.992 256.673 884.564C258.052 888.136 260.806 891.018 264.329 892.577C267.852 894.135 271.856 894.243 275.458 892.875C278.954 891.548 281.587 888.367 283.196 885.961C283.46 885.567 283.905 884.654 284.489 883.342L276.718 866.495ZM276.034 882.89C275.526 883.692 274.864 884.386 274.085 884.934C273.306 885.482 272.426 885.873 271.495 886.084C270.564 886.294 269.6 886.321 268.659 886.163C267.717 886.004 266.816 885.663 266.008 885.16C265.199 884.656 264.498 883.999 263.945 883.227C263.393 882.455 262.999 881.582 262.786 880.659C262.574 879.736 262.547 878.781 262.707 877.847C262.866 876.914 263.21 876.021 263.718 875.219C264.744 873.6 266.377 872.451 268.258 872.026C270.138 871.6 272.112 871.932 273.745 872.95C275.378 873.967 276.537 875.586 276.966 877.45C277.396 879.314 277.061 881.271 276.034 882.89V882.89Z" stroke="black" stroke-width="2" stroke-miterlimit="10" stroke-linecap="round" stroke-linejoin="round"/>
<path d="M290.68 834.985L300.014 812.335C306.569 821.082 303.728 832.1 301.537 838.912C300.819 841.139 299.709 844.514 297.355 850.811" stroke="black" stroke-width="2" stroke-miterlimit="10" stroke-linecap="round" stroke-linejoin="round"/>
</g>
<g opacity="0.3">
<path d="M303.069 25.8946H266.333C265.486 25.8946 264.674 25.5668 264.075 24.9832C263.475 24.3996 263.139 23.6081 263.139 22.7828C263.139 21.9575 263.475 21.166 264.075 20.5824C264.674 19.9988 265.486 19.671 266.333 19.671H303.069C303.917 19.671 304.729 19.9988 305.328 20.5824C305.927 21.166 306.264 21.9575 306.264 22.7828C306.264 23.6081 305.927 24.3996 305.328 24.9832C304.729 25.5668 303.917 25.8946 303.069 25.8946Z" fill="#D0CFCE"/>
<path d="M305.465 94.3549H268.729C267.882 94.3549 267.069 94.027 266.47 93.4435C265.871 92.8599 265.535 92.0684 265.535 91.2431C265.535 90.4177 265.871 89.6262 266.47 89.0427C267.069 88.4591 267.882 88.1312 268.729 88.1312H305.465C306.312 88.1312 307.125 88.4591 307.724 89.0427C308.323 89.6262 308.66 90.4177 308.66 91.2431C308.66 92.0684 308.323 92.8599 307.724 93.4435C307.125 94.027 306.312 94.3549 305.465 94.3549Z" fill="#D0CFCE"/>
<path d="M267.132 25.8946H302.271V88.1312H267.132V25.8946Z" fill="#EA5A47"/>
<path d="M292.403 25.8946L267.132 39.8979V33.6742L280.648 25.8946H292.403Z" fill="white"/>
<path d="M267.132 58.5688L302.271 38.3419V32.1183L267.132 52.3452V58.5688Z" fill="white"/>
<path d="M302.271 50.7893L267.132 71.0162V77.2398L302.271 57.0129V50.7893Z" fill="white"/>
<path d="M302.271 69.4603L269.834 88.1312H280.648L302.271 75.6839V69.4603Z" fill="white"/>
<path d="M302.271 25.8946H292.403L267.132 39.8979V52.3452L302.271 32.1183V25.8946Z" fill="#92D3F5"/>
<path d="M302.271 69.4602L269.834 88.1312H267.132V77.2398L302.271 57.0129V69.4602Z" fill="#92D3F5"/>
<path d="M303.069 25.8946H266.333C265.486 25.8946 264.674 25.5668 264.075 24.9832C263.475 24.3996 263.139 23.6081 263.139 22.7828C263.139 21.9575 263.475 21.166 264.075 20.5824C264.674 19.9988 265.486 19.671 266.333 19.671H303.069C303.917 19.671 304.729 19.9988 305.328 20.5824C305.927 21.166 306.264 21.9575 306.264 22.7828C306.264 23.6081 305.927 24.3996 305.328 24.9832C304.729 25.5668 303.917 25.8946 303.069 25.8946Z" stroke="black" stroke-width="2" stroke-miterlimit="10" stroke-linecap="round" stroke-linejoin="round"/>
<path d="M303.069 94.3549H266.333C265.486 94.3549 264.674 94.027 264.075 93.4434C263.475 92.8599 263.139 92.0684 263.139 91.243C263.139 90.4177 263.475 89.6262 264.075 89.0427C264.674 88.4591 265.486 88.1312 266.333 88.1312H303.069C303.917 88.1312 304.729 88.4591 305.328 89.0427C305.927 89.6262 306.264 90.4177 306.264 91.243C306.264 92.0684 305.927 92.8599 305.328 93.4434C304.729 94.027 303.917 94.3549 303.069 94.3549Z" stroke="black" stroke-width="2" stroke-miterlimit="10" stroke-linecap="round" stroke-linejoin="round"/>
<path d="M267.132 25.8946H302.271V88.1312H267.132V25.8946Z" stroke="black" stroke-width="2" stroke-miterlimit="10" stroke-linecap="round" stroke-linejoin="round"/>
<path d="M292.403 25.8946L267.132 39.8979V33.6742L280.648 25.8946H292.403Z" stroke="black" stroke-width="2" stroke-miterlimit="10" stroke-linecap="round" stroke-linejoin="round"/>
<path d="M267.132 58.5688L302.271 38.3419V32.1183L267.132 52.3452V58.5688Z" stroke="black" stroke-width="2" stroke-miterlimit="10" stroke-linecap="round" stroke-linejoin="round"/>
<path d="M302.271 50.7892L267.132 71.0161V77.2398L302.271 57.0129V50.7892Z" stroke="black" stroke-width="2" stroke-miterlimit="10" stroke-linecap="round" stroke-linejoin="round"/>
<path d="M302.271 69.4602L269.834 88.1312H280.648L302.271 75.6839V69.4602Z" stroke="black" stroke-width="2" stroke-miterlimit="10" stroke-linecap="round" stroke-linejoin="round"/>
<path d="M302.271 25.8946H292.403L267.132 39.8979V52.3452L302.271 32.1183V25.8946Z" stroke="black" stroke-width="2" stroke-miterlimit="10" stroke-linecap="round" stroke-linejoin="round"/>
<path d="M302.271 69.4602L269.835 88.1312H267.132V77.2398L302.271 57.0129V69.4602Z" stroke="black" stroke-width="2" stroke-miterlimit="10" stroke-linecap="round" stroke-linejoin="round"/>
</g>
<g opacity="0.3">
<path d="M303.069 481.895H266.333C265.486 481.895 264.674 481.567 264.075 480.983C263.475 480.4 263.139 479.608 263.139 478.783C263.139 477.957 263.475 477.166 264.075 476.582C264.674 475.999 265.486 475.671 266.333 475.671H303.069C303.917 475.671 304.729 475.999 305.328 476.582C305.927 477.166 306.264 477.957 306.264 478.783C306.264 479.608 305.927 480.4 305.328 480.983C304.729 481.567 303.917 481.895 303.069 481.895Z" fill="#D0CFCE"/>
<path d="M305.465 550.355H268.729C267.882 550.355 267.069 550.027 266.47 549.443C265.871 548.86 265.535 548.068 265.535 547.243C265.535 546.418 265.871 545.626 266.47 545.043C267.069 544.459 267.882 544.131 268.729 544.131H305.465C306.312 544.131 307.125 544.459 307.724 545.043C308.323 545.626 308.66 546.418 308.66 547.243C308.66 548.068 308.323 548.86 307.724 549.443C307.125 550.027 306.312 550.355 305.465 550.355Z" fill="#D0CFCE"/>
<path d="M267.132 481.895H302.271V544.131H267.132V481.895Z" fill="#EA5A47"/>
<path d="M292.403 481.895L267.132 495.898V489.674L280.648 481.895H292.403Z" fill="white"/>
<path d="M267.132 514.569L302.271 494.342V488.118L267.132 508.345V514.569Z" fill="white"/>
<path d="M302.271 506.789L267.132 527.016V533.24L302.271 513.013V506.789Z" fill="white"/>
<path d="M302.271 525.46L269.834 544.131H280.648L302.271 531.684V525.46Z" fill="white"/>
<path d="M302.271 481.895H292.403L267.132 495.898V508.345L302.271 488.118V481.895Z" fill="#92D3F5"/>
<path d="M302.271 525.46L269.834 544.131H267.132V533.24L302.271 513.013V525.46Z" fill="#92D3F5"/>
<path d="M303.069 481.895H266.333C265.486 481.895 264.674 481.567 264.075 480.983C263.475 480.4 263.139 479.608 263.139 478.783C263.139 477.957 263.475 477.166 264.075 476.582C264.674 475.999 265.486 475.671 266.333 475.671H303.069C303.917 475.671 304.729 475.999 305.328 476.582C305.927 477.166 306.264 477.957 306.264 478.783C306.264 479.608 305.927 480.4 305.328 480.983C304.729 481.567 303.917 481.895 303.069 481.895Z" stroke="black" stroke-width="2" stroke-miterlimit="10" stroke-linecap="round" stroke-linejoin="round"/>
<path d="M303.069 550.355H266.333C265.486 550.355 264.674 550.027 264.075 549.443C263.475 548.86 263.139 548.068 263.139 547.243C263.139 546.418 263.475 545.626 264.075 545.043C264.674 544.459 265.486 544.131 266.333 544.131H303.069C303.917 544.131 304.729 544.459 305.328 545.043C305.927 545.626 306.264 546.418 306.264 547.243C306.264 548.068 305.927 548.86 305.328 549.443C304.729 550.027 303.917 550.355 303.069 550.355Z" stroke="black" stroke-width="2" stroke-miterlimit="10" stroke-linecap="round" stroke-linejoin="round"/>
<path d="M267.132 481.895H302.271V544.131H267.132V481.895Z" stroke="black" stroke-width="2" stroke-miterlimit="10" stroke-linecap="round" stroke-linejoin="round"/>
<path d="M292.403 481.895L267.132 495.898V489.674L280.648 481.895H292.403Z" stroke="black" stroke-width="2" stroke-miterlimit="10" stroke-linecap="round" stroke-linejoin="round"/>
<path d="M267.132 514.569L302.271 494.342V488.118L267.132 508.345V514.569Z" stroke="black" stroke-width="2" stroke-miterlimit="10" stroke-linecap="round" stroke-linejoin="round"/>
<path d="M302.271 506.789L267.132 527.016V533.24L302.271 513.013V506.789Z" stroke="black" stroke-width="2" stroke-miterlimit="10" stroke-linecap="round" stroke-linejoin="round"/>
<path d="M302.271 525.46L269.834 544.131H280.648L302.271 531.684V525.46Z" stroke="black" stroke-width="2" stroke-miterlimit="10" stroke-linecap="round" stroke-linejoin="round"/>
<path d="M302.271 481.895H292.403L267.132 495.898V508.345L302.271 488.118V481.895Z" stroke="black" stroke-width="2" stroke-miterlimit="10" stroke-linecap="round" stroke-linejoin="round"/>
<path d="M302.271 525.46L269.835 544.131H267.132V533.24L302.271 513.013V525.46Z" stroke="black" stroke-width="2" stroke-miterlimit="10" stroke-linecap="round" stroke-linejoin="round"/>
</g>
<g opacity="0.3">
<path d="M303.069 253.895H266.333C265.486 253.895 264.674 253.567 264.075 252.983C263.475 252.4 263.139 251.608 263.139 250.783C263.139 249.957 263.475 249.166 264.075 248.582C264.674 247.999 265.486 247.671 266.333 247.671H303.069C303.917 247.671 304.729 247.999 305.328 248.582C305.927 249.166 306.264 249.957 306.264 250.783C306.264 251.608 305.927 252.4 305.328 252.983C304.729 253.567 303.917 253.895 303.069 253.895Z" fill="#D0CFCE"/>
<path d="M305.465 322.355H268.729C267.882 322.355 267.069 322.027 266.47 321.443C265.871 320.86 265.535 320.068 265.535 319.243C265.535 318.418 265.871 317.626 266.47 317.043C267.069 316.459 267.882 316.131 268.729 316.131H305.465C306.312 316.131 307.125 316.459 307.724 317.043C308.323 317.626 308.66 318.418 308.66 319.243C308.66 320.068 308.323 320.86 307.724 321.443C307.125 322.027 306.312 322.355 305.465 322.355Z" fill="#D0CFCE"/>
<path d="M267.132 253.895H302.271V316.131H267.132V253.895Z" fill="#EA5A47"/>
<path d="M292.403 253.895L267.132 267.898V261.674L280.648 253.895H292.403Z" fill="white"/>
<path d="M267.132 286.569L302.271 266.342V260.118L267.132 280.345V286.569Z" fill="white"/>
<path d="M302.271 278.789L267.132 299.016V305.24L302.271 285.013V278.789Z" fill="white"/>
<path d="M302.271 297.46L269.834 316.131H280.648L302.271 303.684V297.46Z" fill="white"/>
<path d="M302.271 253.895H292.403L267.132 267.898V280.345L302.271 260.118V253.895Z" fill="#92D3F5"/>
<path d="M302.271 297.46L269.834 316.131H267.132V305.24L302.271 285.013V297.46Z" fill="#92D3F5"/>
<path d="M303.069 253.895H266.333C265.486 253.895 264.674 253.567 264.075 252.983C263.475 252.4 263.139 251.608 263.139 250.783C263.139 249.957 263.475 249.166 264.075 248.582C264.674 247.999 265.486 247.671 266.333 247.671H303.069C303.917 247.671 304.729 247.999 305.328 248.582C305.927 249.166 306.264 249.957 306.264 250.783C306.264 251.608 305.927 252.4 305.328 252.983C304.729 253.567 303.917 253.895 303.069 253.895Z" stroke="black" stroke-width="2" stroke-miterlimit="10" stroke-linecap="round" stroke-linejoin="round"/>
<path d="M303.069 322.355H266.333C265.486 322.355 264.674 322.027 264.075 321.443C263.475 320.86 263.139 320.068 263.139 319.243C263.139 318.418 263.475 317.626 264.075 317.043C264.674 316.459 265.486 316.131 266.333 316.131H303.069C303.917 316.131 304.729 316.459 305.328 317.043C305.927 317.626 306.264 318.418 306.264 319.243C306.264 320.068 305.927 320.86 305.328 321.443C304.729 322.027 303.917 322.355 303.069 322.355Z" stroke="black" stroke-width="2" stroke-miterlimit="10" stroke-linecap="round" stroke-linejoin="round"/>
<path d="M267.132 253.895H302.271V316.131H267.132V253.895Z" stroke="black" stroke-width="2" stroke-miterlimit="10" stroke-linecap="round" stroke-linejoin="round"/>
<path d="M292.403 253.895L267.132 267.898V261.674L280.648 253.895H292.403Z" stroke="black" stroke-width="2" stroke-miterlimit="10" stroke-linecap="round" stroke-linejoin="round"/>
<path d="M267.132 286.569L302.271 266.342V260.118L267.132 280.345V286.569Z" stroke="black" stroke-width="2" stroke-miterlimit="10" stroke-linecap="round" stroke-linejoin="round"/>
<path d="M302.271 278.789L267.132 299.016V305.24L302.271 285.013V278.789Z" stroke="black" stroke-width="2" stroke-miterlimit="10" stroke-linecap="round" stroke-linejoin="round"/>
<path d="M302.271 297.46L269.834 316.131H280.648L302.271 303.684V297.46Z" stroke="black" stroke-width="2" stroke-miterlimit="10" stroke-linecap="round" stroke-linejoin="round"/>
<path d="M302.271 253.895H292.403L267.132 267.898V280.345L302.271 260.118V253.895Z" stroke="black" stroke-width="2" stroke-miterlimit="10" stroke-linecap="round" stroke-linejoin="round"/>
<path d="M302.271 297.46L269.835 316.131H267.132V305.24L302.271 285.013V297.46Z" stroke="black" stroke-width="2" stroke-miterlimit="10" stroke-linecap="round" stroke-linejoin="round"/>
</g>
<g opacity="0.3">
<path d="M303.069 709.895H266.333C265.486 709.895 264.674 709.567 264.075 708.983C263.475 708.4 263.139 707.608 263.139 706.783C263.139 705.957 263.475 705.166 264.075 704.582C264.674 703.999 265.486 703.671 266.333 703.671H303.069C303.917 703.671 304.729 703.999 305.328 704.582C305.927 705.166 306.264 705.957 306.264 706.783C306.264 707.608 305.927 708.4 305.328 708.983C304.729 709.567 303.917 709.895 303.069 709.895Z" fill="#D0CFCE"/>
<path d="M305.465 778.355H268.729C267.882 778.355 267.069 778.027 266.47 777.443C265.871 776.86 265.535 776.068 265.535 775.243C265.535 774.418 265.871 773.626 266.47 773.043C267.069 772.459 267.882 772.131 268.729 772.131H305.465C306.312 772.131 307.125 772.459 307.724 773.043C308.323 773.626 308.66 774.418 308.66 775.243C308.66 776.068 308.323 776.86 307.724 777.443C307.125 778.027 306.312 778.355 305.465 778.355Z" fill="#D0CFCE"/>
<path d="M267.132 709.895H302.271V772.131H267.132V709.895Z" fill="#EA5A47"/>
<path d="M292.403 709.895L267.132 723.898V717.674L280.648 709.895H292.403Z" fill="white"/>
<path d="M267.132 742.569L302.271 722.342V716.118L267.132 736.345V742.569Z" fill="white"/>
<path d="M302.271 734.789L267.132 755.016V761.24L302.271 741.013V734.789Z" fill="white"/>
<path d="M302.271 753.46L269.834 772.131H280.648L302.271 759.684V753.46Z" fill="white"/>
<path d="M302.271 709.895H292.403L267.132 723.898V736.345L302.271 716.118V709.895Z" fill="#92D3F5"/>
<path d="M302.271 753.46L269.834 772.131H267.132V761.24L302.271 741.013V753.46Z" fill="#92D3F5"/>
<path d="M303.069 709.895H266.333C265.486 709.895 264.674 709.567 264.075 708.983C263.475 708.4 263.139 707.608 263.139 706.783C263.139 705.957 263.475 705.166 264.075 704.582C264.674 703.999 265.486 703.671 266.333 703.671H303.069C303.917 703.671 304.729 703.999 305.328 704.582C305.927 705.166 306.264 705.957 306.264 706.783C306.264 707.608 305.927 708.4 305.328 708.983C304.729 709.567 303.917 709.895 303.069 709.895Z" stroke="black" stroke-width="2" stroke-miterlimit="10" stroke-linecap="round" stroke-linejoin="round"/>
<path d="M303.069 778.355H266.333C265.486 778.355 264.674 778.027 264.075 777.443C263.475 776.86 263.139 776.068 263.139 775.243C263.139 774.418 263.475 773.626 264.075 773.043C264.674 772.459 265.486 772.131 266.333 772.131H303.069C303.917 772.131 304.729 772.459 305.328 773.043C305.927 773.626 306.264 774.418 306.264 775.243C306.264 776.068 305.927 776.86 305.328 777.443C304.729 778.027 303.917 778.355 303.069 778.355Z" stroke="black" stroke-width="2" stroke-miterlimit="10" stroke-linecap="round" stroke-linejoin="round"/>
<path d="M267.132 709.895H302.271V772.131H267.132V709.895Z" stroke="black" stroke-width="2" stroke-miterlimit="10" stroke-linecap="round" stroke-linejoin="round"/>
<path d="M292.403 709.895L267.132 723.898V717.674L280.648 709.895H292.403Z" stroke="black" stroke-width="2" stroke-miterlimit="10" stroke-linecap="round" stroke-linejoin="round"/>
<path d="M267.132 742.569L302.271 722.342V716.118L267.132 736.345V742.569Z" stroke="black" stroke-width="2" stroke-miterlimit="10" stroke-linecap="round" stroke-linejoin="round"/>
<path d="M302.271 734.789L267.132 755.016V761.24L302.271 741.013V734.789Z" stroke="black" stroke-width="2" stroke-miterlimit="10" stroke-linecap="round" stroke-linejoin="round"/>
<path d="M302.271 753.46L269.834 772.131H280.648L302.271 759.684V753.46Z" stroke="black" stroke-width="2" stroke-miterlimit="10" stroke-linecap="round" stroke-linejoin="round"/>
<path d="M302.271 709.895H292.403L267.132 723.898V736.345L302.271 716.118V709.895Z" stroke="black" stroke-width="2" stroke-miterlimit="10" stroke-linecap="round" stroke-linejoin="round"/>
<path d="M302.271 753.46L269.835 772.131H267.132V761.24L302.271 741.013V753.46Z" stroke="black" stroke-width="2" stroke-miterlimit="10" stroke-linecap="round" stroke-linejoin="round"/>
</g>
<g opacity="0.3">
<g clip-path="url(#clip5)">
<path d="M129.265 85.8047C131.689 89.4113 134.408 91.8648 137.131 92.892C144.646 95.7313 153.103 92.0132 155.981 84.5835C156.672 82.8171 157 80.933 156.948 79.0403C156.896 77.1476 156.464 75.2839 155.677 73.5572C154.9 71.826 153.784 70.2641 152.391 68.9619C150.999 67.6598 149.359 66.6434 147.566 65.9714C143.55 64.4525 139.86 63.8715 136.081 65.9302C135.629 66.1755 134.758 64.7135 134.564 64.2451L132.336 60.1711L120.895 65.8253C125.763 78.2601 128.596 84.8144 129.265 85.8047V85.8047ZM138.331 72.3807C139.165 71.8594 140.096 71.5067 141.069 71.343C142.043 71.1794 143.039 71.208 144.002 71.4271C144.965 71.6419 145.875 72.0432 146.68 72.6077C147.485 73.1722 148.169 73.8888 148.692 74.7159C149.22 75.5399 149.577 76.4591 149.743 77.4202C149.909 78.3814 149.88 79.3655 149.658 80.3155C149.44 81.2665 149.033 82.1654 148.462 82.9603C147.89 83.7553 147.164 84.4305 146.327 84.9471C145.492 85.4683 144.561 85.8209 143.588 85.9843C142.614 86.1478 141.617 86.119 140.655 85.8995C139.692 85.6847 138.782 85.2836 137.977 84.7193C137.172 84.155 136.489 83.4387 135.966 82.6118C135.438 81.7876 135.081 80.8682 134.915 79.9069C134.75 78.9455 134.779 77.9612 135.001 77.0111C135.219 76.0605 135.626 75.162 136.197 74.3673C136.769 73.5726 137.494 72.8974 138.331 72.3807V72.3807Z" fill="#EA5A47"/>
<path d="M132.067 60.6439L111.838 13.6069C110.153 16.821 108.094 20.0696 108.126 24.4391C108.168 29.9294 110.573 36.2795 110.573 36.2795C110.573 36.2795 120.668 63.1632 121.181 64.4903C121.199 64.5394 132.067 60.6439 132.067 60.6439V60.6439Z" fill="#D0CFCE"/>
<path d="M139.324 14.2738C139.324 14.2738 127.905 37.1026 128.186 36.3141L128.177 36.3141L125.582 42.5527L134.425 62.7406L137.774 53.3136L137.758 53.2957C137.681 53.4474 142.019 36.5037 142.115 36.2104C144.313 29.4053 143.113 21.5217 139.326 14.2738L139.324 14.2738Z" fill="#9B9B9A"/>
<path d="M104.545 67.3163C97.8766 69.8368 93.0326 79.1456 95.5828 85.7277C98.1364 92.3153 107.163 97.5614 113.832 95.0421C116.246 94.1298 119.477 91.8235 121.628 88.6217C121.722 88.4845 125.174 84.6136 125.021 85.3295L126.401 81.5958C124.375 76.9675 118.916 63.6863 118.515 62.6435L116.906 67.1613L116.913 67.1814C117.213 67.5182 107.908 66.0472 104.545 67.3163V67.3163ZM115.953 79.1367C116.168 80.0542 116.196 81.0047 116.036 81.9331C115.876 82.8616 115.532 83.7495 115.022 84.5455C113.996 86.153 112.367 87.2932 110.491 87.7161C108.615 88.139 106.645 87.8102 105.014 86.8016C104.205 86.3032 103.504 85.6511 102.952 84.883C102.4 84.1149 102.007 83.2462 101.798 82.3273C101.584 81.41 101.556 80.4598 101.716 79.5318C101.876 78.6037 102.221 77.7163 102.731 76.9207C103.236 76.1219 103.896 75.4298 104.674 74.8845C105.451 74.3391 106.331 73.9513 107.261 73.7434C108.19 73.5315 109.152 73.5038 110.092 73.6617C111.032 73.8196 111.931 74.1601 112.737 74.6635C113.546 75.1622 114.247 75.8144 114.8 76.5824C115.352 77.3504 115.744 78.219 115.954 79.1378L115.953 79.1367Z" fill="#D22F27"/>
<path d="M120.908 66.1855C116.591 55.1024 111.881 42.4356 110.669 38.6784C108.476 31.8956 105.636 20.9206 112.19 12.2095L132.399 60.4031" stroke="black" stroke-width="2" stroke-miterlimit="10" stroke-linecap="round" stroke-linejoin="round"/>
<path d="M147.147 65.6022C145.17 64.8534 143.051 64.541 140.939 64.6868C138.827 64.8327 136.773 65.4333 134.921 66.4465L132.399 60.403L120.907 66.1855C124.447 75.2702 128.063 84.1362 129.009 85.5425C130.618 87.9392 133.252 91.1086 136.746 92.4291C140.34 93.7522 144.318 93.62 147.814 92.0612C151.31 90.5024 154.041 87.6432 155.412 84.106C156.783 80.5687 156.684 76.6398 155.136 73.1743C153.589 69.7088 150.717 66.9873 147.147 65.6022V65.6022ZM148.486 74.843C148.995 75.6416 149.338 76.5311 149.498 77.4608C149.658 78.3906 149.631 79.3423 149.418 80.2617C149.206 81.1811 148.812 82.0501 148.259 82.8192C147.707 83.5883 147.006 84.2424 146.197 84.744C145.388 85.2457 144.488 85.5852 143.546 85.7431C142.604 85.901 141.641 85.8742 140.71 85.6643C139.778 85.4544 138.898 85.0655 138.12 84.5197C137.341 83.9739 136.678 83.282 136.17 82.4835C135.144 80.8707 134.809 78.9216 135.238 77.0648C135.668 75.208 136.826 73.5956 138.46 72.5825C140.093 71.5693 142.067 71.2382 143.947 71.6622C145.828 72.0861 147.46 73.2303 148.486 74.843Z" stroke="black" stroke-width="2" stroke-miterlimit="10" stroke-linecap="round" stroke-linejoin="round"/>
<path d="M115.718 68.223C113.919 67.3379 111.953 66.8318 109.946 66.7367C107.938 66.6417 105.933 66.9599 104.057 67.671C102.273 68.3454 100.641 69.3602 99.2539 70.6574C97.8672 71.9546 96.7527 73.5088 95.9742 75.2313C94.402 78.71 94.2937 82.663 95.673 86.2206C97.0524 89.7782 99.8065 92.649 103.329 94.2015C106.852 95.754 110.856 95.861 114.458 94.4989C117.954 93.1774 120.587 90.009 122.196 87.6124C122.46 87.2198 122.905 86.3098 123.489 85.0039L115.718 68.223ZM115.034 84.5533C114.526 85.3519 113.864 86.0438 113.085 86.5895C112.306 87.1353 111.426 87.5243 110.495 87.7342C109.564 87.9441 108.6 87.9709 107.659 87.813C106.717 87.6551 105.816 87.3156 105.008 86.8139C104.199 86.3122 103.498 85.6582 102.945 84.8891C102.393 84.12 101.999 83.251 101.786 82.3316C101.574 81.4122 101.547 80.4604 101.707 79.5307C101.866 78.601 102.21 77.7114 102.718 76.9129C103.744 75.3002 105.377 74.156 107.258 73.732C109.138 73.3081 111.112 73.6391 112.745 74.6523C114.378 75.6655 115.537 77.2778 115.966 79.1346C116.396 80.9914 116.061 82.9406 115.034 84.5533V84.5533Z" stroke="black" stroke-width="2" stroke-miterlimit="10" stroke-linecap="round" stroke-linejoin="round"/>
<path d="M129.68 36.8383L139.014 14.2783C145.569 22.9904 142.728 33.9643 140.537 40.7494C139.819 42.9676 138.709 46.33 136.355 52.602" stroke="black" stroke-width="2" stroke-miterlimit="10" stroke-linecap="round" stroke-linejoin="round"/>
</g>
<path d="M142.069 140.368H105.333C104.486 140.368 103.674 140.039 103.075 139.452C102.475 138.865 102.139 138.069 102.139 137.239C102.139 136.409 102.475 135.613 103.075 135.026C103.674 134.439 104.486 134.109 105.333 134.109H142.069C142.917 134.109 143.729 134.439 144.328 135.026C144.927 135.613 145.264 136.409 145.264 137.239C145.264 138.069 144.927 138.865 144.328 139.452C143.729 140.039 142.917 140.368 142.069 140.368Z" fill="#D0CFCE"/>
<path d="M144.465 209.222H107.729C106.882 209.222 106.069 208.892 105.47 208.305C104.871 207.718 104.535 206.922 104.535 206.092C104.535 205.262 104.871 204.466 105.47 203.879C106.069 203.292 106.882 202.962 107.729 202.962H144.465C145.312 202.962 146.125 203.292 146.724 203.879C147.323 204.466 147.66 205.262 147.66 206.092C147.66 206.922 147.323 207.718 146.724 208.305C146.125 208.892 145.312 209.222 144.465 209.222Z" fill="#D0CFCE"/>
<path d="M106.132 140.368H141.271V202.962H106.132V140.368Z" fill="#EA5A47"/>
<path d="M131.403 140.368L106.132 154.452V148.193L119.648 140.368H131.403Z" fill="white"/>
<path d="M106.132 173.23L141.271 152.887V146.628L106.132 166.971V173.23Z" fill="white"/>
<path d="M141.271 165.406L106.132 185.749V192.008L141.271 171.665V165.406Z" fill="white"/>
<path d="M141.271 184.184L108.834 202.962H119.648L141.271 190.444V184.184Z" fill="white"/>
<path d="M141.271 140.368H131.403L106.132 154.452V166.971L141.271 146.628V140.368Z" fill="#92D3F5"/>
<path d="M141.271 184.184L108.834 202.962H106.132V192.008L141.271 171.665V184.184Z" fill="#92D3F5"/>
<path d="M142.069 140.368H105.333C104.486 140.368 103.674 140.039 103.075 139.452C102.475 138.865 102.139 138.069 102.139 137.239C102.139 136.409 102.475 135.613 103.075 135.026C103.674 134.439 104.486 134.109 105.333 134.109H142.069C142.917 134.109 143.729 134.439 144.328 135.026C144.927 135.613 145.264 136.409 145.264 137.239C145.264 138.069 144.927 138.865 144.328 139.452C143.729 140.039 142.917 140.368 142.069 140.368Z" stroke="black" stroke-width="2" stroke-miterlimit="10" stroke-linecap="round" stroke-linejoin="round"/>
<path d="M142.069 209.222H105.333C104.486 209.222 103.674 208.892 103.075 208.305C102.475 207.718 102.139 206.922 102.139 206.092C102.139 205.262 102.475 204.466 103.075 203.879C103.674 203.292 104.486 202.962 105.333 202.962H142.069C142.917 202.962 143.729 203.292 144.328 203.879C144.927 204.466 145.264 205.262 145.264 206.092C145.264 206.922 144.927 207.718 144.328 208.305C143.729 208.892 142.917 209.222 142.069 209.222Z" stroke="black" stroke-width="2" stroke-miterlimit="10" stroke-linecap="round" stroke-linejoin="round"/>
<path d="M106.132 140.368H141.271V202.962H106.132V140.368Z" stroke="black" stroke-width="2" stroke-miterlimit="10" stroke-linecap="round" stroke-linejoin="round"/>
<path d="M131.403 140.368L106.132 154.452V148.193L119.648 140.368H131.403Z" stroke="black" stroke-width="2" stroke-miterlimit="10" stroke-linecap="round" stroke-linejoin="round"/>
<path d="M106.132 173.23L141.271 152.887V146.628L106.132 166.971V173.23Z" stroke="black" stroke-width="2" stroke-miterlimit="10" stroke-linecap="round" stroke-linejoin="round"/>
<path d="M141.271 165.406L106.132 185.749V192.008L141.271 171.665V165.406Z" stroke="black" stroke-width="2" stroke-miterlimit="10" stroke-linecap="round" stroke-linejoin="round"/>
<path d="M141.271 184.184L108.834 202.962H119.648L141.271 190.444V184.184Z" stroke="black" stroke-width="2" stroke-miterlimit="10" stroke-linecap="round" stroke-linejoin="round"/>
<path d="M141.271 140.368H131.403L106.132 154.452V166.971L141.271 146.628V140.368Z" stroke="black" stroke-width="2" stroke-miterlimit="10" stroke-linecap="round" stroke-linejoin="round"/>
<path d="M141.271 184.184L108.835 202.962H106.132V192.008L141.271 171.665V184.184Z" stroke="black" stroke-width="2" stroke-miterlimit="10" stroke-linecap="round" stroke-linejoin="round"/>
</g>
<g opacity="0.3">
<g clip-path="url(#clip6)">
<path d="M129.265 541.805C131.689 545.411 134.408 547.865 137.131 548.892C144.646 551.731 153.103 548.013 155.981 540.583C156.672 538.817 157 536.933 156.948 535.04C156.896 533.148 156.464 531.284 155.677 529.557C154.9 527.826 153.784 526.264 152.391 524.962C150.999 523.66 149.359 522.643 147.566 521.971C143.55 520.452 139.86 519.871 136.081 521.93C135.629 522.176 134.758 520.713 134.564 520.245L132.336 516.171L120.895 521.825C125.763 534.26 128.596 540.814 129.265 541.805V541.805ZM138.331 528.381C139.165 527.859 140.096 527.507 141.069 527.343C142.043 527.179 143.039 527.208 144.002 527.427C144.965 527.642 145.875 528.043 146.68 528.608C147.485 529.172 148.169 529.889 148.692 530.716C149.22 531.54 149.577 532.459 149.743 533.42C149.909 534.381 149.88 535.365 149.658 536.316C149.44 537.266 149.033 538.165 148.462 538.96C147.89 539.755 147.164 540.431 146.327 540.947C145.492 541.468 144.561 541.821 143.588 541.984C142.614 542.148 141.617 542.119 140.655 541.899C139.692 541.685 138.782 541.284 137.977 540.719C137.172 540.155 136.489 539.439 135.966 538.612C135.438 537.788 135.081 536.868 134.915 535.907C134.75 534.945 134.779 533.961 135.001 533.011C135.219 532.061 135.626 531.162 136.197 530.367C136.769 529.573 137.494 528.897 138.331 528.381V528.381Z" fill="#EA5A47"/>
<path d="M132.067 516.644L111.838 469.607C110.153 472.821 108.094 476.07 108.126 480.439C108.168 485.929 110.573 492.279 110.573 492.279C110.573 492.279 120.668 519.163 121.181 520.49C121.199 520.539 132.067 516.644 132.067 516.644V516.644Z" fill="#D0CFCE"/>
<path d="M139.324 470.274C139.324 470.274 127.905 493.103 128.186 492.314L128.177 492.314L125.582 498.553L134.425 518.741L137.774 509.314L137.758 509.296C137.681 509.447 142.019 492.504 142.115 492.21C144.313 485.405 143.113 477.522 139.326 470.274L139.324 470.274Z" fill="#9B9B9A"/>
<path d="M104.545 523.316C97.8766 525.837 93.0326 535.146 95.5828 541.728C98.1364 548.315 107.163 553.561 113.832 551.042C116.246 550.13 119.477 547.824 121.628 544.622C121.722 544.485 125.174 540.614 125.021 541.33L126.401 537.596C124.375 532.968 118.916 519.686 118.515 518.644L116.906 523.161L116.913 523.181C117.213 523.518 107.908 522.047 104.545 523.316V523.316ZM115.953 535.137C116.168 536.054 116.196 537.005 116.036 537.933C115.876 538.862 115.532 539.75 115.022 540.546C113.996 542.153 112.367 543.293 110.491 543.716C108.615 544.139 106.645 543.81 105.014 542.802C104.205 542.303 103.504 541.651 102.952 540.883C102.4 540.115 102.007 539.246 101.798 538.327C101.584 537.41 101.556 536.46 101.716 535.532C101.876 534.604 102.221 533.716 102.731 532.921C103.236 532.122 103.896 531.43 104.674 530.884C105.451 530.339 106.331 529.951 107.261 529.743C108.19 529.532 109.152 529.504 110.092 529.662C111.032 529.82 111.931 530.16 112.737 530.663C113.546 531.162 114.247 531.814 114.8 532.582C115.352 533.35 115.744 534.219 115.954 535.138L115.953 535.137Z" fill="#D22F27"/>
<path d="M120.908 522.186C116.591 511.102 111.881 498.436 110.669 494.678C108.476 487.896 105.636 476.921 112.19 468.21L132.399 516.403" stroke="black" stroke-width="2" stroke-miterlimit="10" stroke-linecap="round" stroke-linejoin="round"/>
<path d="M147.147 521.602C145.17 520.853 143.051 520.541 140.939 520.687C138.827 520.833 136.773 521.433 134.921 522.446L132.399 516.403L120.907 522.185C124.447 531.27 128.063 540.136 129.009 541.543C130.618 543.939 133.252 547.109 136.746 548.429C140.34 549.752 144.318 549.62 147.814 548.061C151.31 546.502 154.041 543.643 155.412 540.106C156.783 536.569 156.684 532.64 155.136 529.174C153.589 525.709 150.717 522.987 147.147 521.602V521.602ZM148.486 530.843C148.995 531.642 149.338 532.531 149.498 533.461C149.658 534.391 149.631 535.342 149.418 536.262C149.206 537.181 148.812 538.05 148.259 538.819C147.707 539.588 147.006 540.242 146.197 540.744C145.388 541.246 144.488 541.585 143.546 541.743C142.604 541.901 141.641 541.874 140.71 541.664C139.778 541.454 138.898 541.065 138.12 540.52C137.341 539.974 136.678 539.282 136.17 538.483C135.144 536.871 134.809 534.922 135.238 533.065C135.668 531.208 136.826 529.596 138.46 528.582C140.093 527.569 142.067 527.238 143.947 527.662C145.828 528.086 147.46 529.23 148.486 530.843Z" stroke="black" stroke-width="2" stroke-miterlimit="10" stroke-linecap="round" stroke-linejoin="round"/>
<path d="M115.718 524.223C113.919 523.338 111.953 522.832 109.946 522.737C107.938 522.642 105.933 522.96 104.057 523.671C102.273 524.345 100.641 525.36 99.2539 526.657C97.8672 527.955 96.7527 529.509 95.9742 531.231C94.402 534.71 94.2937 538.663 95.673 542.221C97.0524 545.778 99.8065 548.649 103.329 550.202C106.852 551.754 110.856 551.861 114.458 550.499C117.954 549.177 120.587 546.009 122.196 543.612C122.46 543.22 122.905 542.31 123.489 541.004L115.718 524.223ZM115.034 540.553C114.526 541.352 113.864 542.044 113.085 542.59C112.306 543.135 111.426 543.524 110.495 543.734C109.564 543.944 108.6 543.971 107.659 543.813C106.717 543.655 105.816 543.316 105.008 542.814C104.199 542.312 103.498 541.658 102.945 540.889C102.393 540.12 101.999 539.251 101.786 538.332C101.574 537.412 101.547 536.46 101.707 535.531C101.866 534.601 102.21 533.711 102.718 532.913C103.744 531.3 105.377 530.156 107.258 529.732C109.138 529.308 111.112 529.639 112.745 530.652C114.378 531.666 115.537 533.278 115.966 535.135C116.396 536.991 116.061 538.941 115.034 540.553V540.553Z" stroke="black" stroke-width="2" stroke-miterlimit="10" stroke-linecap="round" stroke-linejoin="round"/>
<path d="M129.68 492.838L139.014 470.278C145.569 478.99 142.728 489.964 140.537 496.749C139.819 498.968 138.709 502.33 136.355 508.602" stroke="black" stroke-width="2" stroke-miterlimit="10" stroke-linecap="round" stroke-linejoin="round"/>
</g>
<path d="M142.069 596.368H105.333C104.486 596.368 103.674 596.039 103.075 595.452C102.475 594.865 102.139 594.069 102.139 593.239C102.139 592.409 102.475 591.613 103.075 591.026C103.674 590.439 104.486 590.109 105.333 590.109H142.069C142.917 590.109 143.729 590.439 144.328 591.026C144.927 591.613 145.264 592.409 145.264 593.239C145.264 594.069 144.927 594.865 144.328 595.452C143.729 596.039 142.917 596.368 142.069 596.368Z" fill="#D0CFCE"/>
<path d="M144.465 665.222H107.729C106.882 665.222 106.069 664.892 105.47 664.305C104.871 663.718 104.535 662.922 104.535 662.092C104.535 661.262 104.871 660.466 105.47 659.879C106.069 659.292 106.882 658.962 107.729 658.962H144.465C145.312 658.962 146.125 659.292 146.724 659.879C147.323 660.466 147.66 661.262 147.66 662.092C147.66 662.922 147.323 663.718 146.724 664.305C146.125 664.892 145.312 665.222 144.465 665.222Z" fill="#D0CFCE"/>
<path d="M106.132 596.368H141.271V658.962H106.132V596.368Z" fill="#EA5A47"/>
<path d="M131.403 596.368L106.132 610.452V604.193L119.648 596.368H131.403Z" fill="white"/>
<path d="M106.132 629.23L141.271 608.887V602.628L106.132 622.971V629.23Z" fill="white"/>
<path d="M141.271 621.406L106.132 641.749V648.008L141.271 627.665V621.406Z" fill="white"/>
<path d="M141.271 640.184L108.834 658.962H119.648L141.271 646.444V640.184Z" fill="white"/>
<path d="M141.271 596.368H131.403L106.132 610.452V622.971L141.271 602.628V596.368Z" fill="#92D3F5"/>
<path d="M141.271 640.184L108.834 658.962H106.132V648.008L141.271 627.665V640.184Z" fill="#92D3F5"/>
<path d="M142.069 596.368H105.333C104.486 596.368 103.674 596.039 103.075 595.452C102.475 594.865 102.139 594.069 102.139 593.239C102.139 592.409 102.475 591.613 103.075 591.026C103.674 590.439 104.486 590.109 105.333 590.109H142.069C142.917 590.109 143.729 590.439 144.328 591.026C144.927 591.613 145.264 592.409 145.264 593.239C145.264 594.069 144.927 594.865 144.328 595.452C143.729 596.039 142.917 596.368 142.069 596.368Z" stroke="black" stroke-width="2" stroke-miterlimit="10" stroke-linecap="round" stroke-linejoin="round"/>
<path d="M142.069 665.222H105.333C104.486 665.222 103.674 664.892 103.075 664.305C102.475 663.718 102.139 662.922 102.139 662.092C102.139 661.262 102.475 660.466 103.075 659.879C103.674 659.292 104.486 658.962 105.333 658.962H142.069C142.917 658.962 143.729 659.292 144.328 659.879C144.927 660.466 145.264 661.262 145.264 662.092C145.264 662.922 144.927 663.718 144.328 664.305C143.729 664.892 142.917 665.222 142.069 665.222Z" stroke="black" stroke-width="2" stroke-miterlimit="10" stroke-linecap="round" stroke-linejoin="round"/>
<path d="M106.132 596.368H141.271V658.962H106.132V596.368Z" stroke="black" stroke-width="2" stroke-miterlimit="10" stroke-linecap="round" stroke-linejoin="round"/>
<path d="M131.403 596.368L106.132 610.452V604.193L119.648 596.368H131.403Z" stroke="black" stroke-width="2" stroke-miterlimit="10" stroke-linecap="round" stroke-linejoin="round"/>
<path d="M106.132 629.23L141.271 608.887V602.628L106.132 622.971V629.23Z" stroke="black" stroke-width="2" stroke-miterlimit="10" stroke-linecap="round" stroke-linejoin="round"/>
<path d="M141.271 621.406L106.132 641.749V648.008L141.271 627.665V621.406Z" stroke="black" stroke-width="2" stroke-miterlimit="10" stroke-linecap="round" stroke-linejoin="round"/>
<path d="M141.271 640.184L108.834 658.962H119.648L141.271 646.444V640.184Z" stroke="black" stroke-width="2" stroke-miterlimit="10" stroke-linecap="round" stroke-linejoin="round"/>
<path d="M141.271 596.368H131.403L106.132 610.452V622.971L141.271 602.628V596.368Z" stroke="black" stroke-width="2" stroke-miterlimit="10" stroke-linecap="round" stroke-linejoin="round"/>
<path d="M141.271 640.184L108.835 658.962H106.132V648.008L141.271 627.665V640.184Z" stroke="black" stroke-width="2" stroke-miterlimit="10" stroke-linecap="round" stroke-linejoin="round"/>
</g>
<g opacity="0.3">
<g clip-path="url(#clip7)">
<path d="M129.265 313.805C131.689 317.411 134.408 319.865 137.131 320.892C144.646 323.731 153.103 320.013 155.981 312.583C156.672 310.817 157 308.933 156.948 307.04C156.896 305.148 156.464 303.284 155.677 301.557C154.9 299.826 153.784 298.264 152.391 296.962C150.999 295.66 149.359 294.643 147.566 293.971C143.55 292.452 139.86 291.871 136.081 293.93C135.629 294.176 134.758 292.713 134.564 292.245L132.336 288.171L120.895 293.825C125.763 306.26 128.596 312.814 129.265 313.805V313.805ZM138.331 300.381C139.165 299.859 140.096 299.507 141.069 299.343C142.043 299.179 143.039 299.208 144.002 299.427C144.965 299.642 145.875 300.043 146.68 300.608C147.485 301.172 148.169 301.889 148.692 302.716C149.22 303.54 149.577 304.459 149.743 305.42C149.909 306.381 149.88 307.365 149.658 308.316C149.44 309.266 149.033 310.165 148.462 310.96C147.89 311.755 147.164 312.431 146.327 312.947C145.492 313.468 144.561 313.821 143.588 313.984C142.614 314.148 141.617 314.119 140.655 313.899C139.692 313.685 138.782 313.284 137.977 312.719C137.172 312.155 136.489 311.439 135.966 310.612C135.438 309.788 135.081 308.868 134.915 307.907C134.75 306.945 134.779 305.961 135.001 305.011C135.219 304.061 135.626 303.162 136.197 302.367C136.769 301.573 137.494 300.897 138.331 300.381V300.381Z" fill="#EA5A47"/>
<path d="M132.067 288.644L111.838 241.607C110.153 244.821 108.094 248.07 108.126 252.439C108.168 257.929 110.573 264.279 110.573 264.279C110.573 264.279 120.668 291.163 121.181 292.49C121.199 292.539 132.067 288.644 132.067 288.644V288.644Z" fill="#D0CFCE"/>
<path d="M139.324 242.274C139.324 242.274 127.905 265.103 128.186 264.314L128.177 264.314L125.582 270.553L134.425 290.741L137.774 281.314L137.758 281.296C137.681 281.447 142.019 264.504 142.115 264.21C144.313 257.405 143.113 249.522 139.326 242.274L139.324 242.274Z" fill="#9B9B9A"/>
<path d="M104.545 295.316C97.8766 297.837 93.0326 307.146 95.5828 313.728C98.1364 320.315 107.163 325.561 113.832 323.042C116.246 322.13 119.477 319.824 121.628 316.622C121.722 316.485 125.174 312.614 125.021 313.33L126.401 309.596C124.375 304.968 118.916 291.686 118.515 290.644L116.906 295.161L116.913 295.181C117.213 295.518 107.908 294.047 104.545 295.316V295.316ZM115.953 307.137C116.168 308.054 116.196 309.005 116.036 309.933C115.876 310.862 115.532 311.75 115.022 312.546C113.996 314.153 112.367 315.293 110.491 315.716C108.615 316.139 106.645 315.81 105.014 314.802C104.205 314.303 103.504 313.651 102.952 312.883C102.4 312.115 102.007 311.246 101.798 310.327C101.584 309.41 101.556 308.46 101.716 307.532C101.876 306.604 102.221 305.716 102.731 304.921C103.236 304.122 103.896 303.43 104.674 302.884C105.451 302.339 106.331 301.951 107.261 301.743C108.19 301.532 109.152 301.504 110.092 301.662C111.032 301.82 111.931 302.16 112.737 302.663C113.546 303.162 114.247 303.814 114.8 304.582C115.352 305.35 115.744 306.219 115.954 307.138L115.953 307.137Z" fill="#D22F27"/>
<path d="M120.908 294.186C116.591 283.102 111.881 270.436 110.669 266.678C108.476 259.896 105.636 248.921 112.19 240.21L132.399 288.403" stroke="black" stroke-width="2" stroke-miterlimit="10" stroke-linecap="round" stroke-linejoin="round"/>
<path d="M147.147 293.602C145.17 292.853 143.051 292.541 140.939 292.687C138.827 292.833 136.773 293.433 134.921 294.446L132.399 288.403L120.907 294.186C124.447 303.27 128.063 312.136 129.009 313.543C130.618 315.939 133.252 319.109 136.746 320.429C140.34 321.752 144.318 321.62 147.814 320.061C151.31 318.502 154.041 315.643 155.412 312.106C156.783 308.569 156.684 304.64 155.136 301.174C153.589 297.709 150.717 294.987 147.147 293.602V293.602ZM148.486 302.843C148.995 303.642 149.338 304.531 149.498 305.461C149.658 306.391 149.631 307.342 149.418 308.262C149.206 309.181 148.812 310.05 148.259 310.819C147.707 311.588 147.006 312.242 146.197 312.744C145.388 313.246 144.488 313.585 143.546 313.743C142.604 313.901 141.641 313.874 140.71 313.664C139.778 313.454 138.898 313.065 138.12 312.52C137.341 311.974 136.678 311.282 136.17 310.483C135.144 308.871 134.809 306.922 135.238 305.065C135.668 303.208 136.826 301.596 138.46 300.582C140.093 299.569 142.067 299.238 143.947 299.662C145.828 300.086 147.46 301.23 148.486 302.843Z" stroke="black" stroke-width="2" stroke-miterlimit="10" stroke-linecap="round" stroke-linejoin="round"/>
<path d="M115.718 296.223C113.919 295.338 111.953 294.832 109.946 294.737C107.938 294.642 105.933 294.96 104.057 295.671C102.273 296.345 100.641 297.36 99.2539 298.657C97.8672 299.955 96.7527 301.509 95.9742 303.231C94.402 306.71 94.2937 310.663 95.673 314.221C97.0524 317.778 99.8065 320.649 103.329 322.202C106.852 323.754 110.856 323.861 114.458 322.499C117.954 321.177 120.587 318.009 122.196 315.612C122.46 315.22 122.905 314.31 123.489 313.004L115.718 296.223ZM115.034 312.553C114.526 313.352 113.864 314.044 113.085 314.59C112.306 315.135 111.426 315.524 110.495 315.734C109.564 315.944 108.6 315.971 107.659 315.813C106.717 315.655 105.816 315.316 105.008 314.814C104.199 314.312 103.498 313.658 102.945 312.889C102.393 312.12 101.999 311.251 101.786 310.332C101.574 309.412 101.547 308.46 101.707 307.531C101.866 306.601 102.21 305.711 102.718 304.913C103.744 303.3 105.377 302.156 107.258 301.732C109.138 301.308 111.112 301.639 112.745 302.652C114.378 303.666 115.537 305.278 115.966 307.135C116.396 308.991 116.061 310.941 115.034 312.553V312.553Z" stroke="black" stroke-width="2" stroke-miterlimit="10" stroke-linecap="round" stroke-linejoin="round"/>
<path d="M129.68 264.838L139.014 242.278C145.569 250.99 142.728 261.964 140.537 268.749C139.819 270.968 138.709 274.33 136.355 280.602" stroke="black" stroke-width="2" stroke-miterlimit="10" stroke-linecap="round" stroke-linejoin="round"/>
</g>
<path d="M142.069 368.368H105.333C104.486 368.368 103.674 368.039 103.075 367.452C102.475 366.865 102.139 366.069 102.139 365.239C102.139 364.409 102.475 363.613 103.075 363.026C103.674 362.439 104.486 362.109 105.333 362.109H142.069C142.917 362.109 143.729 362.439 144.328 363.026C144.927 363.613 145.264 364.409 145.264 365.239C145.264 366.069 144.927 366.865 144.328 367.452C143.729 368.039 142.917 368.368 142.069 368.368Z" fill="#D0CFCE"/>
<path d="M144.465 437.222H107.729C106.882 437.222 106.069 436.892 105.47 436.305C104.871 435.718 104.535 434.922 104.535 434.092C104.535 433.262 104.871 432.466 105.47 431.879C106.069 431.292 106.882 430.962 107.729 430.962H144.465C145.312 430.962 146.125 431.292 146.724 431.879C147.323 432.466 147.66 433.262 147.66 434.092C147.66 434.922 147.323 435.718 146.724 436.305C146.125 436.892 145.312 437.222 144.465 437.222Z" fill="#D0CFCE"/>
<path d="M106.132 368.368H141.271V430.962H106.132V368.368Z" fill="#EA5A47"/>
<path d="M131.403 368.368L106.132 382.452V376.193L119.648 368.368H131.403Z" fill="white"/>
<path d="M106.132 401.23L141.271 380.887V374.628L106.132 394.971V401.23Z" fill="white"/>
<path d="M141.271 393.406L106.132 413.749V420.008L141.271 399.665V393.406Z" fill="white"/>
<path d="M141.271 412.184L108.834 430.962H119.648L141.271 418.444V412.184Z" fill="white"/>
<path d="M141.271 368.368H131.403L106.132 382.452V394.971L141.271 374.628V368.368Z" fill="#92D3F5"/>
<path d="M141.271 412.184L108.834 430.962H106.132V420.008L141.271 399.665V412.184Z" fill="#92D3F5"/>
<path d="M142.069 368.368H105.333C104.486 368.368 103.674 368.039 103.075 367.452C102.475 366.865 102.139 366.069 102.139 365.239C102.139 364.409 102.475 363.613 103.075 363.026C103.674 362.439 104.486 362.109 105.333 362.109H142.069C142.917 362.109 143.729 362.439 144.328 363.026C144.927 363.613 145.264 364.409 145.264 365.239C145.264 366.069 144.927 366.865 144.328 367.452C143.729 368.039 142.917 368.368 142.069 368.368Z" stroke="black" stroke-width="2" stroke-miterlimit="10" stroke-linecap="round" stroke-linejoin="round"/>
<path d="M142.069 437.222H105.333C104.486 437.222 103.674 436.892 103.075 436.305C102.475 435.718 102.139 434.922 102.139 434.092C102.139 433.262 102.475 432.466 103.075 431.879C103.674 431.292 104.486 430.962 105.333 430.962H142.069C142.917 430.962 143.729 431.292 144.328 431.879C144.927 432.466 145.264 433.262 145.264 434.092C145.264 434.922 144.927 435.718 144.328 436.305C143.729 436.892 142.917 437.222 142.069 437.222Z" stroke="black" stroke-width="2" stroke-miterlimit="10" stroke-linecap="round" stroke-linejoin="round"/>
<path d="M106.132 368.368H141.271V430.962H106.132V368.368Z" stroke="black" stroke-width="2" stroke-miterlimit="10" stroke-linecap="round" stroke-linejoin="round"/>
<path d="M131.403 368.368L106.132 382.452V376.193L119.648 368.368H131.403Z" stroke="black" stroke-width="2" stroke-miterlimit="10" stroke-linecap="round" stroke-linejoin="round"/>
<path d="M106.132 401.23L141.271 380.887V374.628L106.132 394.971V401.23Z" stroke="black" stroke-width="2" stroke-miterlimit="10" stroke-linecap="round" stroke-linejoin="round"/>
<path d="M141.271 393.406L106.132 413.749V420.008L141.271 399.665V393.406Z" stroke="black" stroke-width="2" stroke-miterlimit="10" stroke-linecap="round" stroke-linejoin="round"/>
<path d="M141.271 412.184L108.834 430.962H119.648L141.271 418.444V412.184Z" stroke="black" stroke-width="2" stroke-miterlimit="10" stroke-linecap="round" stroke-linejoin="round"/>
<path d="M141.271 368.368H131.403L106.132 382.452V394.971L141.271 374.628V368.368Z" stroke="black" stroke-width="2" stroke-miterlimit="10" stroke-linecap="round" stroke-linejoin="round"/>
<path d="M141.271 412.184L108.835 430.962H106.132V420.008L141.271 399.665V412.184Z" stroke="black" stroke-width="2" stroke-miterlimit="10" stroke-linecap="round" stroke-linejoin="round"/>
</g>
<g opacity="0.3">
<g clip-path="url(#clip8)">
<path d="M129.265 769.805C131.689 773.411 134.408 775.865 137.131 776.892C144.646 779.731 153.103 776.013 155.981 768.583C156.672 766.817 157 764.933 156.948 763.04C156.896 761.148 156.464 759.284 155.677 757.557C154.9 755.826 153.784 754.264 152.391 752.962C150.999 751.66 149.359 750.643 147.566 749.971C143.55 748.452 139.86 747.871 136.081 749.93C135.629 750.176 134.758 748.713 134.564 748.245L132.336 744.171L120.895 749.825C125.763 762.26 128.596 768.814 129.265 769.805V769.805ZM138.331 756.381C139.165 755.859 140.096 755.507 141.069 755.343C142.043 755.179 143.039 755.208 144.002 755.427C144.965 755.642 145.875 756.043 146.68 756.608C147.485 757.172 148.169 757.889 148.692 758.716C149.22 759.54 149.577 760.459 149.743 761.42C149.909 762.381 149.88 763.365 149.658 764.316C149.44 765.266 149.033 766.165 148.462 766.96C147.89 767.755 147.164 768.431 146.327 768.947C145.492 769.468 144.561 769.821 143.588 769.984C142.614 770.148 141.617 770.119 140.655 769.899C139.692 769.685 138.782 769.284 137.977 768.719C137.172 768.155 136.489 767.439 135.966 766.612C135.438 765.788 135.081 764.868 134.915 763.907C134.75 762.945 134.779 761.961 135.001 761.011C135.219 760.061 135.626 759.162 136.197 758.367C136.769 757.573 137.494 756.897 138.331 756.381V756.381Z" fill="#EA5A47"/>
<path d="M132.067 744.644L111.838 697.607C110.153 700.821 108.094 704.07 108.126 708.439C108.168 713.929 110.573 720.279 110.573 720.279C110.573 720.279 120.668 747.163 121.181 748.49C121.199 748.539 132.067 744.644 132.067 744.644V744.644Z" fill="#D0CFCE"/>
<path d="M139.324 698.274C139.324 698.274 127.905 721.103 128.186 720.314L128.177 720.314L125.582 726.553L134.425 746.741L137.774 737.314L137.758 737.296C137.681 737.447 142.019 720.504 142.115 720.21C144.313 713.405 143.113 705.522 139.326 698.274L139.324 698.274Z" fill="#9B9B9A"/>
<path d="M104.545 751.316C97.8766 753.837 93.0326 763.146 95.5828 769.728C98.1364 776.315 107.163 781.561 113.832 779.042C116.246 778.13 119.477 775.824 121.628 772.622C121.722 772.485 125.174 768.614 125.021 769.33L126.401 765.596C124.375 760.968 118.916 747.686 118.515 746.644L116.906 751.161L116.913 751.181C117.213 751.518 107.908 750.047 104.545 751.316V751.316ZM115.953 763.137C116.168 764.054 116.196 765.005 116.036 765.933C115.876 766.862 115.532 767.75 115.022 768.546C113.996 770.153 112.367 771.293 110.491 771.716C108.615 772.139 106.645 771.81 105.014 770.802C104.205 770.303 103.504 769.651 102.952 768.883C102.4 768.115 102.007 767.246 101.798 766.327C101.584 765.41 101.556 764.46 101.716 763.532C101.876 762.604 102.221 761.716 102.731 760.921C103.236 760.122 103.896 759.43 104.674 758.884C105.451 758.339 106.331 757.951 107.261 757.743C108.19 757.532 109.152 757.504 110.092 757.662C111.032 757.82 111.931 758.16 112.737 758.663C113.546 759.162 114.247 759.814 114.8 760.582C115.352 761.35 115.744 762.219 115.954 763.138L115.953 763.137Z" fill="#D22F27"/>
<path d="M120.908 750.186C116.591 739.102 111.881 726.436 110.669 722.678C108.476 715.896 105.636 704.921 112.19 696.21L132.399 744.403" stroke="black" stroke-width="2" stroke-miterlimit="10" stroke-linecap="round" stroke-linejoin="round"/>
<path d="M147.147 749.602C145.17 748.853 143.051 748.541 140.939 748.687C138.827 748.833 136.773 749.433 134.921 750.446L132.399 744.403L120.907 750.186C124.447 759.27 128.063 768.136 129.009 769.543C130.618 771.939 133.252 775.109 136.746 776.429C140.34 777.752 144.318 777.62 147.814 776.061C151.31 774.502 154.041 771.643 155.412 768.106C156.783 764.569 156.684 760.64 155.136 757.174C153.589 753.709 150.717 750.987 147.147 749.602V749.602ZM148.486 758.843C148.995 759.642 149.338 760.531 149.498 761.461C149.658 762.391 149.631 763.342 149.418 764.262C149.206 765.181 148.812 766.05 148.259 766.819C147.707 767.588 147.006 768.242 146.197 768.744C145.388 769.246 144.488 769.585 143.546 769.743C142.604 769.901 141.641 769.874 140.71 769.664C139.778 769.454 138.898 769.065 138.12 768.52C137.341 767.974 136.678 767.282 136.17 766.483C135.144 764.871 134.809 762.922 135.238 761.065C135.668 759.208 136.826 757.596 138.46 756.582C140.093 755.569 142.067 755.238 143.947 755.662C145.828 756.086 147.46 757.23 148.486 758.843Z" stroke="black" stroke-width="2" stroke-miterlimit="10" stroke-linecap="round" stroke-linejoin="round"/>
<path d="M115.718 752.223C113.919 751.338 111.953 750.832 109.946 750.737C107.938 750.642 105.933 750.96 104.057 751.671C102.273 752.345 100.641 753.36 99.2539 754.657C97.8672 755.955 96.7527 757.509 95.9742 759.231C94.402 762.71 94.2937 766.663 95.673 770.221C97.0524 773.778 99.8065 776.649 103.329 778.202C106.852 779.754 110.856 779.861 114.458 778.499C117.954 777.177 120.587 774.009 122.196 771.612C122.46 771.22 122.905 770.31 123.489 769.004L115.718 752.223ZM115.034 768.553C114.526 769.352 113.864 770.044 113.085 770.59C112.306 771.135 111.426 771.524 110.495 771.734C109.564 771.944 108.6 771.971 107.659 771.813C106.717 771.655 105.816 771.316 105.008 770.814C104.199 770.312 103.498 769.658 102.945 768.889C102.393 768.12 101.999 767.251 101.786 766.332C101.574 765.412 101.547 764.46 101.707 763.531C101.866 762.601 102.21 761.711 102.718 760.913C103.744 759.3 105.377 758.156 107.258 757.732C109.138 757.308 111.112 757.639 112.745 758.652C114.378 759.666 115.537 761.278 115.966 763.135C116.396 764.991 116.061 766.941 115.034 768.553V768.553Z" stroke="black" stroke-width="2" stroke-miterlimit="10" stroke-linecap="round" stroke-linejoin="round"/>
<path d="M129.68 720.838L139.014 698.278C145.569 706.99 142.728 717.964 140.537 724.749C139.819 726.968 138.709 730.33 136.355 736.602" stroke="black" stroke-width="2" stroke-miterlimit="10" stroke-linecap="round" stroke-linejoin="round"/>
</g>
<path d="M142.069 824.368H105.333C104.486 824.368 103.674 824.039 103.075 823.452C102.475 822.865 102.139 822.069 102.139 821.239C102.139 820.409 102.475 819.613 103.075 819.026C103.674 818.439 104.486 818.109 105.333 818.109H142.069C142.917 818.109 143.729 818.439 144.328 819.026C144.927 819.613 145.264 820.409 145.264 821.239C145.264 822.069 144.927 822.865 144.328 823.452C143.729 824.039 142.917 824.368 142.069 824.368Z" fill="#D0CFCE"/>
<path d="M144.465 893.222H107.729C106.882 893.222 106.069 892.892 105.47 892.305C104.871 891.718 104.535 890.922 104.535 890.092C104.535 889.262 104.871 888.466 105.47 887.879C106.069 887.292 106.882 886.962 107.729 886.962H144.465C145.312 886.962 146.125 887.292 146.724 887.879C147.323 888.466 147.66 889.262 147.66 890.092C147.66 890.922 147.323 891.718 146.724 892.305C146.125 892.892 145.312 893.222 144.465 893.222Z" fill="#D0CFCE"/>
<path d="M106.132 824.368H141.271V886.962H106.132V824.368Z" fill="#EA5A47"/>
<path d="M131.403 824.368L106.132 838.452V832.193L119.648 824.368H131.403Z" fill="white"/>
<path d="M106.132 857.23L141.271 836.887V830.628L106.132 850.971V857.23Z" fill="white"/>
<path d="M141.271 849.406L106.132 869.749V876.008L141.271 855.665V849.406Z" fill="white"/>
<path d="M141.271 868.184L108.834 886.962H119.648L141.271 874.444V868.184Z" fill="white"/>
<path d="M141.271 824.368H131.403L106.132 838.452V850.971L141.271 830.628V824.368Z" fill="#92D3F5"/>
<path d="M141.271 868.184L108.834 886.962H106.132V876.008L141.271 855.665V868.184Z" fill="#92D3F5"/>
<path d="M142.069 824.368H105.333C104.486 824.368 103.674 824.039 103.075 823.452C102.475 822.865 102.139 822.069 102.139 821.239C102.139 820.409 102.475 819.613 103.075 819.026C103.674 818.439 104.486 818.109 105.333 818.109H142.069C142.917 818.109 143.729 818.439 144.328 819.026C144.927 819.613 145.264 820.409 145.264 821.239C145.264 822.069 144.927 822.865 144.328 823.452C143.729 824.039 142.917 824.368 142.069 824.368Z" stroke="black" stroke-width="2" stroke-miterlimit="10" stroke-linecap="round" stroke-linejoin="round"/>
<path d="M142.069 893.222H105.333C104.486 893.222 103.674 892.892 103.075 892.305C102.475 891.718 102.139 890.922 102.139 890.092C102.139 889.262 102.475 888.466 103.075 887.879C103.674 887.292 104.486 886.962 105.333 886.962H142.069C142.917 886.962 143.729 887.292 144.328 887.879C144.927 888.466 145.264 889.262 145.264 890.092C145.264 890.922 144.927 891.718 144.328 892.305C143.729 892.892 142.917 893.222 142.069 893.222Z" stroke="black" stroke-width="2" stroke-miterlimit="10" stroke-linecap="round" stroke-linejoin="round"/>
<path d="M106.132 824.368H141.271V886.962H106.132V824.368Z" stroke="black" stroke-width="2" stroke-miterlimit="10" stroke-linecap="round" stroke-linejoin="round"/>
<path d="M131.403 824.368L106.132 838.452V832.193L119.648 824.368H131.403Z" stroke="black" stroke-width="2" stroke-miterlimit="10" stroke-linecap="round" stroke-linejoin="round"/>
<path d="M106.132 857.23L141.271 836.887V830.628L106.132 850.971V857.23Z" stroke="black" stroke-width="2" stroke-miterlimit="10" stroke-linecap="round" stroke-linejoin="round"/>
<path d="M141.271 849.406L106.132 869.749V876.008L141.271 855.665V849.406Z" stroke="black" stroke-width="2" stroke-miterlimit="10" stroke-linecap="round" stroke-linejoin="round"/>
<path d="M141.271 868.184L108.834 886.962H119.648L141.271 874.444V868.184Z" stroke="black" stroke-width="2" stroke-miterlimit="10" stroke-linecap="round" stroke-linejoin="round"/>
<path d="M141.271 824.368H131.403L106.132 838.452V850.971L141.271 830.628V824.368Z" stroke="black" stroke-width="2" stroke-miterlimit="10" stroke-linecap="round" stroke-linejoin="round"/>
<path d="M141.271 868.184L108.835 886.962H106.132V876.008L141.271 855.665V868.184Z" stroke="black" stroke-width="2" stroke-miterlimit="10" stroke-linecap="round" stroke-linejoin="round"/>
</g>
</g>
<defs>
<clipPath id="clip0">
<rect width="414" height="896" fill="white"/>
</clipPath>
<clipPath id="clip1">
<rect width="115" height="114.009" fill="white" transform="translate(228 114)"/>
</clipPath>
<clipPath id="clip2">
<rect width="115" height="114.009" fill="white" transform="translate(228 570)"/>
</clipPath>
<clipPath id="clip3">
<rect width="115" height="114.009" fill="white" transform="translate(228 342)"/>
</clipPath>
<clipPath id="clip4">
<rect width="115" height="114.009" fill="white" transform="translate(228 798)"/>
</clipPath>
<clipPath id="clip5">
<rect width="115" height="113.556" fill="white" transform="translate(67)"/>
</clipPath>
<clipPath id="clip6">
<rect width="115" height="113.556" fill="white" transform="translate(67 456)"/>
</clipPath>
<clipPath id="clip7">
<rect width="115" height="113.556" fill="white" transform="translate(67 228)"/>
</clipPath>
<clipPath id="clip8">
<rect width="115" height="113.556" fill="white" transform="translate(67 684)"/>
</clipPath>
</defs>
</svg>
