<svg width="152" height="41" viewBox="0 0 152 41" fill="none" xmlns="http://www.w3.org/2000/svg">
<path d="M52.68 29H54.444V21.236H61.164V19.484H54.444V13.484H62.604V11.72H52.68V29ZM64.7738 29H66.5378V22.532C66.5378 21.756 66.6258 20.984 66.8018 20.216C66.9858 19.44 67.4018 18.796 68.0498 18.284C68.5218 17.9 69.0338 17.68 69.5858 17.624C70.1458 17.56 70.6658 17.584 71.1458 17.696V16.04C70.5778 15.896 69.9338 15.892 69.2138 16.028C68.4938 16.156 67.8778 16.444 67.3658 16.892C66.9818 17.18 66.6458 17.58 66.3578 18.092V16.04H64.7738V29ZM73.6622 13.58H75.4262V11.6H73.6622V13.58ZM73.6622 29H75.4262V16.04H73.6622V29ZM77.8238 29H88.6358V27.356H80.7398L89.0918 16.448V16.04H78.4478V17.684H86.1878L77.8238 28.628V29ZM93.6523 13.16H99.6643V11.66H93.6523V13.16ZM96.4843 29.36C97.7403 29.36 98.8643 29.052 99.8563 28.436C100.856 27.82 101.612 26.944 102.124 25.808L100.48 25.172C99.6563 26.836 98.3003 27.668 96.4123 27.668C95.1163 27.668 94.1003 27.264 93.3643 26.456C92.6363 25.648 92.2363 24.5 92.1643 23.012H102.376C102.44 20.724 101.94 18.932 100.876 17.636C99.8203 16.332 98.3323 15.68 96.4123 15.68C95.1643 15.68 94.0803 15.96 93.1603 16.52C92.2483 17.08 91.5403 17.876 91.0363 18.908C90.5323 19.94 90.2803 21.164 90.2803 22.58C90.2803 23.948 90.5323 25.14 91.0363 26.156C91.5483 27.172 92.2683 27.96 93.1963 28.52C94.1323 29.08 95.2283 29.36 96.4843 29.36ZM96.4603 17.3C98.9003 17.3 100.256 18.712 100.528 21.536H92.2003C92.3363 20.168 92.7683 19.12 93.4963 18.392C94.2243 17.664 95.2123 17.3 96.4603 17.3ZM112.095 29V27.452C111.167 27.604 110.387 27.628 109.755 27.524C109.131 27.42 108.675 27.1 108.387 26.564C108.235 26.284 108.151 25.964 108.135 25.604C108.127 25.236 108.123 24.78 108.123 24.236V17.552H112.095V16.04H108.123V12.44H106.371V16.04H103.599V17.552H106.371V24.308C106.371 24.94 106.379 25.504 106.395 26C106.419 26.496 106.547 26.98 106.779 27.452C107.067 28.028 107.487 28.452 108.039 28.724C108.599 28.996 109.231 29.148 109.935 29.18C110.647 29.212 111.367 29.152 112.095 29ZM118.357 29.36C120.621 29.36 122.265 28.524 123.289 26.852V29H124.861V20.948C124.861 20.468 124.837 19.996 124.789 19.532C124.741 19.068 124.637 18.648 124.477 18.272C124.133 17.432 123.545 16.792 122.713 16.352C121.889 15.904 120.885 15.68 119.701 15.68C118.277 15.68 117.117 16 116.221 16.64C115.325 17.28 114.725 18.18 114.421 19.34L116.137 19.844C116.385 18.98 116.813 18.348 117.421 17.948C118.037 17.548 118.789 17.348 119.677 17.348C120.909 17.348 121.789 17.636 122.317 18.212C122.845 18.78 123.117 19.648 123.133 20.816C122.557 20.896 121.921 20.98 121.225 21.068C120.537 21.156 119.845 21.256 119.149 21.368C118.453 21.48 117.813 21.608 117.229 21.752C116.261 22.008 115.469 22.436 114.853 23.036C114.237 23.628 113.929 24.456 113.929 25.52C113.929 26.208 114.093 26.844 114.421 27.428C114.749 28.012 115.241 28.48 115.897 28.832C116.561 29.184 117.381 29.36 118.357 29.36ZM118.561 27.836C117.865 27.836 117.305 27.724 116.881 27.5C116.465 27.268 116.161 26.976 115.969 26.624C115.785 26.264 115.693 25.896 115.693 25.52C115.693 24.816 115.929 24.288 116.401 23.936C116.873 23.584 117.385 23.328 117.937 23.168C118.649 22.976 119.477 22.82 120.421 22.7C121.365 22.58 122.261 22.468 123.109 22.364C123.109 22.66 123.097 23 123.073 23.384C123.057 23.76 123.013 24.108 122.941 24.428C122.773 25.404 122.309 26.216 121.549 26.864C120.797 27.512 119.801 27.836 118.561 27.836ZM131.02 29H132.844L137.548 16.04H135.736L131.932 26.696L128.104 16.04H126.316L131.02 29ZM142.685 29.36C144.949 29.36 146.593 28.524 147.617 26.852V29H149.189V20.948C149.189 20.468 149.165 19.996 149.117 19.532C149.069 19.068 148.965 18.648 148.805 18.272C148.461 17.432 147.873 16.792 147.041 16.352C146.217 15.904 145.213 15.68 144.029 15.68C142.605 15.68 141.445 16 140.549 16.64C139.653 17.28 139.053 18.18 138.749 19.34L140.465 19.844C140.713 18.98 141.141 18.348 141.749 17.948C142.365 17.548 143.117 17.348 144.005 17.348C145.237 17.348 146.117 17.636 146.645 18.212C147.173 18.78 147.445 19.648 147.461 20.816C146.885 20.896 146.249 20.98 145.553 21.068C144.865 21.156 144.173 21.256 143.477 21.368C142.781 21.48 142.141 21.608 141.557 21.752C140.589 22.008 139.797 22.436 139.181 23.036C138.565 23.628 138.257 24.456 138.257 25.52C138.257 26.208 138.421 26.844 138.749 27.428C139.077 28.012 139.569 28.48 140.225 28.832C140.889 29.184 141.709 29.36 142.685 29.36ZM142.889 27.836C142.193 27.836 141.633 27.724 141.209 27.5C140.793 27.268 140.489 26.976 140.297 26.624C140.113 26.264 140.021 25.896 140.021 25.52C140.021 24.816 140.257 24.288 140.729 23.936C141.201 23.584 141.713 23.328 142.265 23.168C142.977 22.976 143.805 22.82 144.749 22.7C145.693 22.58 146.589 22.468 147.437 22.364C147.437 22.66 147.425 23 147.401 23.384C147.385 23.76 147.341 24.108 147.269 24.428C147.101 25.404 146.637 26.216 145.877 26.864C145.125 27.512 144.129 27.836 142.889 27.836Z" fill="white"/>
<rect width="40" height="40" rx="10" fill="url(#paint0_linear)"/>
<path d="M12.14 16.58C11.6067 17.8867 11.34 19.1067 11.34 20.24C11.34 21.36 11.5667 22.1867 12.02 22.72C12.4867 23.2533 13.2333 23.52 14.26 23.52C14.8733 23.52 15.4133 23.3 15.88 22.86C16.0267 21.7667 16.1467 21.04 16.24 20.68C16.4667 19.8 16.8133 19.36 17.28 19.36C17.6533 19.36 18.0067 19.62 18.34 20.14C18.6733 20.6467 18.8333 21.08 18.82 21.44C18.82 22.04 18.58 23.1533 18.1 24.78C19.0333 24.0733 20.1067 23.0267 21.32 21.64C21.4933 21.44 21.64 21.34 21.76 21.34C21.9467 21.34 22.04 21.56 22.04 22C22.04 22.8533 21.6133 23.7667 20.76 24.74C19.9067 25.7 18.7733 26.4667 17.36 27.04C17.2533 27.2933 17.1667 27.5333 17.1 27.76C17.0333 27.9867 16.9467 28.26 16.84 28.58C16.7333 28.9 16.5467 29.2467 16.28 29.62C16.0133 30.0067 15.68 30.3333 15.28 30.6C14.4267 31.1867 13.4467 31.48 12.34 31.48C11.2467 31.48 10.3267 31.2333 9.58 30.74C8.84667 30.26 8.48 29.5933 8.48 28.74C8.48 28.3267 8.68 27.9867 9.08 27.72C9.48 27.4533 10 27.22 10.64 27.02C11.28 26.8333 12 26.6667 12.8 26.52C13.6 26.3733 14.4 26.2067 15.2 26.02C15.3067 25.7133 15.3867 25.4267 15.44 25.16C14.92 25.56 14.28 25.76 13.52 25.76C11.9333 25.76 10.6867 25.4333 9.78 24.78C8.72667 24.02 8.2 22.8333 8.2 21.22C8.2 19.1133 8.73333 17.1133 9.8 15.22C9.48 14.8467 9.22 14.46 9.02 14.06C8.82 13.6467 8.72 13.3333 8.72 13.12C8.72 12.7467 8.85333 12.5667 9.12 12.58C9.29333 12.58 9.49333 12.6867 9.72 12.9C9.94667 13.1133 10.1267 13.2933 10.26 13.44C10.4067 13.5867 10.56 13.72 10.72 13.84C11.4133 12.96 12.2267 12.2467 13.16 11.7C14.0933 11.1533 15.12 10.88 16.24 10.88C17.36 10.88 18.2333 11.0867 18.86 11.5C19.4867 11.9133 19.8 12.6333 19.8 13.66C19.8 14.6867 19.4 15.54 18.6 16.22C17.8133 16.9 16.7133 17.24 15.3 17.24C14.3267 17.24 13.2733 17.02 12.14 16.58ZM12.8 15.22C13.5333 15.54 14.42 15.7 15.46 15.7C16.1 15.7 16.6133 15.5267 17 15.18C17.3867 14.8333 17.58 14.46 17.58 14.06C17.58 13.6467 17.4467 13.3467 17.18 13.16C16.9267 12.96 16.5867 12.86 16.16 12.86C14.88 12.86 13.76 13.6467 12.8 15.22ZM12.12 29.94C13.0267 29.94 13.82 29.26 14.5 27.9C13.7667 28.0867 13.1467 28.2333 12.64 28.34C12.1333 28.4467 11.72 28.54 11.4 28.62C11.0933 28.7 10.8667 28.78 10.72 28.86C10.5867 28.94 10.52 29.0533 10.52 29.2C10.52 29.4533 10.6867 29.6333 11.02 29.74C11.3667 29.86 11.7333 29.9267 12.12 29.94ZM28.5975 18.98C27.3042 18.98 26.6708 18.6533 26.6975 18C26.6975 17.3867 27.3175 17.08 28.5575 17.08C28.8508 17.08 29.1308 17.1133 29.3975 17.18C29.8375 16.74 30.0575 16.0733 30.0575 15.18C30.0575 13.6333 29.0242 12.86 26.9575 12.86C25.8775 12.86 24.8508 13.0933 23.8775 13.56C23.5175 13.7333 23.1908 13.8933 22.8975 14.04C22.6175 14.1867 22.3575 14.26 22.1175 14.26C21.8775 14.26 21.7575 14.1867 21.7575 14.04C21.7575 13.8667 21.8908 13.6133 22.1575 13.28C22.4242 12.9333 22.7975 12.5867 23.2775 12.24C24.5042 11.3867 25.8975 10.9533 27.4575 10.94C29.4975 10.94 30.9975 11.3467 31.9575 12.16C32.7842 12.84 33.1975 13.7667 33.1975 14.94C33.1975 16.3 32.5308 17.34 31.1975 18.06C32.4775 18.7933 33.2375 19.6933 33.4775 20.76C33.5575 21.1333 33.5975 21.6267 33.5975 22.24C33.5975 22.8533 33.4308 23.4333 33.0975 23.98C32.7642 24.5267 32.3175 24.9867 31.7575 25.36C30.6375 26.08 29.2042 26.44 27.4575 26.44C26.2175 26.44 24.8375 26.16 23.3175 25.6C22.3042 25.2267 21.5575 24.78 21.0775 24.26C20.8375 24.0067 20.7175 23.7533 20.7175 23.5C20.7308 23.2467 20.8575 23.12 21.0975 23.12C21.3508 23.12 21.8242 23.2067 22.5175 23.38V23.36C22.5175 22.32 22.6375 21.2533 22.8775 20.16C23.2908 18.2533 23.7708 16.76 24.3175 15.68C24.9042 14.48 25.5108 13.88 26.1375 13.88C26.3108 13.88 26.3975 14.18 26.3975 14.78C26.3975 15.38 26.3375 15.9933 26.2175 16.62C26.1108 17.2467 25.9908 17.8667 25.8575 18.48C25.7375 19.08 25.6175 19.6267 25.4975 20.12C25.3908 20.6133 25.3375 20.9667 25.3375 21.18L25.1375 24.2C25.9242 24.4133 26.5908 24.52 27.1375 24.52C27.6842 24.52 28.1775 24.4267 28.6175 24.24C29.7242 23.7733 30.2775 22.96 30.2775 21.8C30.2775 21.1067 30.2108 20.5333 30.0775 20.08C29.9442 19.6267 29.7042 19.2267 29.3575 18.88C29.0508 18.9467 28.7975 18.98 28.5975 18.98Z" fill="white"/>
<defs>
<linearGradient id="paint0_linear" x1="40" y1="0" x2="-4.66667" y2="40" gradientUnits="userSpaceOnUse">
<stop stop-color="#FF8718"/>
<stop offset="1" stop-color="#07CFDC"/>
</linearGradient>
</defs>
</svg>
