<svg width="71" height="575" viewBox="0 0 71 575" fill="none" xmlns="http://www.w3.org/2000/svg">
<rect x="14" y="70" width="70" height="42" rx="10" transform="rotate(-90 14 70)" fill="url(#paint0_linear)"/>
<rect x="14" y="575" width="70" height="42" rx="10" transform="rotate(-90 14 575)" fill="url(#paint1_linear)"/>
<path d="M49 50.8913L49 46.9853L43.15 45.0953L43.15 34.4573L49 32.5313L49 28.6253L23.08 37.0493L23.08 42.4673L49 50.8913ZM39.622 43.9433L26.842 39.8033L39.622 35.6093L39.622 43.9433ZM49 25.036L49 21.274L23.08 21.274L23.08 25.036L49 25.036Z" fill="white"/>
<path d="M49 555.891L49 551.985L43.15 550.095L43.15 539.457L49 537.531L49 533.625L23.08 542.049L23.08 547.467L49 555.891ZM39.622 548.943L26.842 544.803L39.622 540.609L39.622 548.943ZM49 530.036L49 526.274L23.08 526.274L23.08 530.036L49 530.036Z" fill="white"/>
<path d="M49 427.423L49 423.517L43.15 421.627L43.15 410.989L49 409.063L49 405.157L23.08 413.581L23.08 418.999L49 427.423ZM39.622 420.475L26.842 416.335L39.622 412.141L39.622 420.475ZM49 401.927L49 398.111L29.722 398.111L49 385.349L49 381.533L23.08 381.533L23.08 385.349L42.34 385.349L23.08 398.111L23.08 401.927L49 401.927ZM49 376.509L49 368.391C49 368.151 48.994 367.707 48.982 367.059C48.97 366.399 48.922 365.769 48.838 365.169C48.574 363.141 47.848 361.437 46.66 360.057C45.46 358.665 43.942 357.615 42.106 356.907C40.258 356.199 38.236 355.845 36.04 355.845C33.832 355.845 31.81 356.199 29.974 356.907C28.126 357.615 26.608 358.665 25.42 360.057C24.22 361.437 23.494 363.141 23.242 365.169C23.158 365.769 23.11 366.399 23.098 367.059C23.086 367.707 23.08 368.151 23.08 368.391L23.08 376.509L49 376.509ZM45.418 372.657L26.662 372.657L26.662 368.391C26.662 367.995 26.674 367.515 26.698 366.951C26.71 366.375 26.758 365.871 26.842 365.439C27.082 364.143 27.646 363.087 28.534 362.271C29.41 361.443 30.502 360.831 31.81 360.435C33.106 360.039 34.516 359.841 36.04 359.841C37.516 359.841 38.908 360.033 40.216 360.417C41.524 360.801 42.628 361.407 43.528 362.235C44.416 363.051 44.986 364.119 45.238 365.439C45.322 365.871 45.376 366.369 45.4 366.933C45.412 367.485 45.418 367.971 45.418 368.391L45.418 372.657ZM49 351.654L49 347.892L39.694 347.892L39.694 341.016L49 336.498L49 332.196L38.956 337.092C38.32 335.616 37.33 334.512 35.986 333.78C34.642 333.048 33.106 332.682 31.378 332.682C29.278 332.682 27.478 333.222 25.978 334.302C24.478 335.382 23.56 337.008 23.224 339.18C23.164 339.516 23.128 339.87 23.116 340.242C23.092 340.614 23.08 340.926 23.08 341.178L23.08 351.654L49 351.654ZM36.13 347.892L26.626 347.892L26.626 341.322C26.626 341.082 26.638 340.818 26.662 340.53C26.686 340.23 26.734 339.948 26.806 339.684C27.07 338.532 27.658 337.716 28.57 337.236C29.482 336.756 30.418 336.516 31.378 336.516C32.326 336.516 33.262 336.756 34.186 337.236C35.098 337.716 35.692 338.532 35.968 339.684C36.028 339.948 36.07 340.23 36.094 340.53C36.118 340.818 36.13 341.082 36.13 341.322L36.13 347.892ZM49 328.24L49 311.68L45.454 311.68L45.454 324.478L37.444 324.478L37.444 313.84L33.898 313.84L33.898 324.478L26.626 324.478L26.626 311.68L23.08 311.68L23.08 328.24L49 328.24ZM49 301.111L49 297.295L38.29 297.295L23.08 288.529L23.08 292.921L33.97 299.203L23.08 305.485L23.08 309.877L38.29 301.111L49 301.111ZM49 272.684L49 268.922L23.08 268.922L23.08 272.684L49 272.684ZM49 264.237L49 244.779L45.436 244.779L45.436 257.703L23.692 244.545L23.08 244.545L23.08 263.517L26.626 263.517L26.626 251.007L48.406 264.237L49 264.237ZM49.54 229.391C49.54 226.799 48.97 224.591 47.83 222.767C46.69 220.943 45.112 219.551 43.096 218.591C41.068 217.631 38.716 217.151 36.04 217.151C33.364 217.151 31.018 217.631 29.002 218.591C26.974 219.551 25.39 220.943 24.25 222.767C23.11 224.591 22.54 226.799 22.54 229.391C22.54 231.983 23.11 234.191 24.25 236.015C25.39 237.839 26.974 239.237 29.002 240.209C31.018 241.169 33.364 241.649 36.04 241.649C38.716 241.649 41.068 241.169 43.096 240.209C45.112 239.237 46.69 237.839 47.83 236.015C48.97 234.191 49.54 231.983 49.54 229.391ZM45.958 229.391C45.934 232.139 45.016 234.209 43.204 235.601C41.392 236.981 39.004 237.665 36.04 237.653C34.06 237.641 32.326 237.335 30.838 236.735C29.338 236.123 28.174 235.205 27.346 233.981C26.506 232.757 26.098 231.227 26.122 229.391C26.134 226.631 27.046 224.567 28.858 223.199C30.67 221.831 33.064 221.147 36.04 221.147C38.02 221.147 39.76 221.453 41.26 222.065C42.748 222.665 43.906 223.577 44.734 224.801C45.562 226.025 45.97 227.555 45.958 229.391ZM49 207.801L49 204.039L26.626 204.039L26.626 195.417L23.08 195.417L23.08 216.423L26.626 216.423L26.626 207.801L49 207.801ZM49.54 181.719C49.54 179.127 48.97 176.919 47.83 175.095C46.69 173.271 45.112 171.879 43.096 170.919C41.068 169.959 38.716 169.479 36.04 169.479C33.364 169.479 31.018 169.959 29.002 170.919C26.974 171.879 25.39 173.271 24.25 175.095C23.11 176.919 22.54 179.127 22.54 181.719C22.54 184.311 23.11 186.519 24.25 188.343C25.39 190.167 26.974 191.565 29.002 192.537C31.018 193.497 33.364 193.977 36.04 193.977C38.716 193.977 41.068 193.497 43.096 192.537C45.112 191.565 46.69 190.167 47.83 188.343C48.97 186.519 49.54 184.311 49.54 181.719ZM45.958 181.719C45.934 184.467 45.016 186.537 43.204 187.929C41.392 189.309 39.004 189.993 36.04 189.981C34.06 189.969 32.326 189.663 30.838 189.063C29.338 188.451 28.174 187.533 27.346 186.309C26.506 185.085 26.098 183.555 26.122 181.719C26.134 178.959 27.046 176.895 28.858 175.527C30.67 174.159 33.064 173.475 36.04 173.475C38.02 173.475 39.76 173.781 41.26 174.393C42.748 174.993 43.906 175.905 44.734 177.129C45.562 178.353 45.97 179.883 45.958 181.719ZM49 160.894L49 155.476L23.08 147.052L23.08 150.958L45.202 158.23L23.08 165.412L23.08 169.318L49 160.894Z" fill="black"/>
<defs>
<linearGradient id="paint0_linear" x1="49" y1="70" x2="49" y2="112" gradientUnits="userSpaceOnUse">
<stop stop-color="#CC0000"/>
<stop offset="1" stop-color="#2900CC"/>
</linearGradient>
<linearGradient id="paint1_linear" x1="49" y1="575" x2="49" y2="617" gradientUnits="userSpaceOnUse">
<stop stop-color="#CC0000"/>
<stop offset="1" stop-color="#2900CC"/>
</linearGradient>
</defs>
</svg>
