<svg width="1440" height="900" viewBox="0 0 1440 900" fill="none" xmlns="http://www.w3.org/2000/svg">
<g opacity="0.2" clip-path="url(#clip0)">
<rect width="1440" height="900" fill="white"/>
<rect x="1167.95" y="-101" width="60" height="1499" transform="rotate(45 1167.95 -101)" fill="#0013C0"/>
<rect x="205.953" y="-488" width="60" height="1499" transform="rotate(45 205.953 -488)" fill="#0013C0"/>
<rect x="1542.95" y="206" width="60" height="1499" transform="rotate(45 1542.95 206)" fill="#0013C0"/>
<rect x="580.953" y="-181" width="60" height="1499" transform="rotate(45 580.953 -181)" fill="#0013C0"/>
<rect x="1486.95" y="-80" width="60" height="1499" transform="rotate(45 1486.95 -80)" fill="#0013C0"/>
<rect x="524.953" y="-467" width="60" height="1499" transform="rotate(45 524.953 -467)" fill="#0013C0"/>
<rect x="1861.95" y="227" width="60" height="1499" transform="rotate(45 1861.95 227)" fill="#0013C0"/>
<rect x="899.953" y="-160" width="60" height="1499" transform="rotate(45 899.953 -160)" fill="#0013C0"/>
<rect x="1295.95" y="-59" width="60" height="1499" transform="rotate(45 1295.95 -59)" fill="#CC0000"/>
<rect x="333.953" y="-446" width="60" height="1499" transform="rotate(45 333.953 -446)" fill="#CC0000"/>
<rect x="1670.95" y="248" width="60" height="1499" transform="rotate(45 1670.95 248)" fill="#CC0000"/>
<rect x="708.953" y="-139" width="60" height="1499" transform="rotate(45 708.953 -139)" fill="#CC0000"/>
<rect x="1614.95" y="-38" width="60" height="1499" transform="rotate(45 1614.95 -38)" fill="#CC0000"/>
<rect x="652.953" y="-425" width="60" height="1499" transform="rotate(45 652.953 -425)" fill="#CC0000"/>
<rect x="1989.95" y="269" width="60" height="1499" transform="rotate(45 1989.95 269)" fill="#CC0000"/>
<rect x="1027.95" y="-118" width="60" height="1499" transform="rotate(45 1027.95 -118)" fill="#CC0000"/>
<rect x="1209.95" y="-59" width="60" height="1499" transform="rotate(45 1209.95 -59)" fill="white"/>
<rect x="247.953" y="-446" width="60" height="1499" transform="rotate(45 247.953 -446)" fill="white"/>
<rect x="1584.95" y="248" width="60" height="1499" transform="rotate(45 1584.95 248)" fill="white"/>
<rect x="622.953" y="-139" width="60" height="1499" transform="rotate(45 622.953 -139)" fill="white"/>
<rect x="1528.95" y="-38" width="60" height="1499" transform="rotate(45 1528.95 -38)" fill="white"/>
<rect x="566.953" y="-425" width="60" height="1499" transform="rotate(45 566.953 -425)" fill="white"/>
<rect x="1903.95" y="269" width="60" height="1499" transform="rotate(45 1903.95 269)" fill="white"/>
<rect x="941.953" y="-118" width="60" height="1499" transform="rotate(45 941.953 -118)" fill="white"/>
<rect x="1381.95" y="-59" width="60" height="1499" transform="rotate(45 1381.95 -59)" fill="white"/>
<rect x="419.953" y="-446" width="60" height="1499" transform="rotate(45 419.953 -446)" fill="white"/>
<rect x="1756.95" y="248" width="60" height="1499" transform="rotate(45 1756.95 248)" fill="white"/>
<rect x="794.953" y="-139" width="60" height="1499" transform="rotate(45 794.953 -139)" fill="white"/>
<rect x="1700.95" y="-38" width="60" height="1499" transform="rotate(45 1700.95 -38)" fill="white"/>
<rect x="738.953" y="-425" width="60" height="1499" transform="rotate(45 738.953 -425)" fill="white"/>
<rect x="2075.95" y="269" width="60" height="1499" transform="rotate(45 2075.95 269)" fill="white"/>
</g>
<defs>
<clipPath id="clip0">
<rect width="1440" height="900" fill="white"/>
</clipPath>
</defs>
</svg>
