<svg width="71" height="624" viewBox="0 0 71 624" fill="none" xmlns="http://www.w3.org/2000/svg">
<rect x="56.5" y="553.5" width="70" height="42" rx="10" transform="rotate(90 56.5 553.5)" fill="url(#paint0_linear)"/>
<rect x="56.5" y="0.5" width="70" height="42" rx="10" transform="rotate(90 56.5 0.5)" fill="url(#paint1_linear)"/>
<path d="M20.96 577.364C20.96 579.884 21.494 582.02 22.562 583.772C23.642 585.536 25.124 586.88 27.008 587.804C28.892 588.728 31.034 589.19 33.434 589.19C33.53 589.19 33.752 589.184 34.1 589.172C34.448 589.16 34.736 589.142 34.964 589.118L34.964 580.082L31.94 580.082L31.94 585.122C29.54 584.858 27.698 584.09 26.414 582.818C25.142 581.546 24.518 579.8 24.542 577.58C24.566 574.832 25.484 572.762 27.296 571.37C29.108 569.99 31.496 569.306 34.46 569.318C36.44 569.33 38.174 569.636 39.662 570.236C41.162 570.848 42.326 571.766 43.154 572.99C43.982 574.214 44.39 575.744 44.378 577.58C44.366 579.368 43.898 580.85 42.974 582.026C42.05 583.202 40.814 584.048 39.266 584.564L39.95 588.38C42.446 587.72 44.402 586.478 45.818 584.654C47.234 582.842 47.942 580.412 47.942 577.364C47.942 575 47.396 572.912 46.304 571.1C45.224 569.288 43.676 567.872 41.66 566.852C39.656 565.832 37.256 565.322 34.46 565.322C31.628 565.322 29.204 565.844 27.188 566.888C25.172 567.932 23.63 569.36 22.562 571.172C21.494 572.984 20.96 575.048 20.96 577.364ZM21.5 592.778L21.5 603.938C21.5 606.41 22.19 608.318 23.57 609.662C24.95 611.018 26.78 611.696 29.06 611.696C30.44 611.696 31.67 611.354 32.75 610.67C33.83 609.986 34.646 609.002 35.198 607.718C35.69 608.57 36.392 609.242 37.304 609.734C38.216 610.226 39.266 610.472 40.454 610.472C41.63 610.472 42.746 610.19 43.802 609.626C44.87 609.062 45.74 608.222 46.412 607.106C47.084 606.002 47.42 604.622 47.42 602.966L47.42 592.778L21.5 592.778ZM36.836 596.594L43.874 596.594L43.874 602.912C43.874 604.04 43.55 604.94 42.902 605.612C42.254 606.284 41.426 606.62 40.418 606.62C39.29 606.62 38.408 606.26 37.772 605.54C37.148 604.832 36.836 603.956 36.836 602.912L36.836 596.594ZM25.082 596.594L33.29 596.594L33.29 603.596C33.29 604.892 32.888 605.924 32.084 606.692C31.292 607.46 30.308 607.844 29.132 607.844C27.872 607.844 26.882 607.418 26.162 606.566C25.442 605.714 25.082 604.646 25.082 603.362L25.082 596.594Z" fill="white"/>
<path d="M20.96 24.3642C20.96 26.8842 21.494 29.0202 22.562 30.7722C23.642 32.5362 25.124 33.8802 27.008 34.8042C28.892 35.7282 31.034 36.1902 33.434 36.1902C33.53 36.1902 33.752 36.1842 34.1 36.1722C34.448 36.1602 34.736 36.1422 34.964 36.1182L34.964 27.0822L31.94 27.0822L31.94 32.1222C29.54 31.8582 27.698 31.0902 26.414 29.8182C25.142 28.5462 24.518 26.8002 24.542 24.5802C24.566 21.8322 25.484 19.7622 27.296 18.3702C29.108 16.9902 31.496 16.3062 34.46 16.3182C36.44 16.3302 38.174 16.6362 39.662 17.2362C41.162 17.8482 42.326 18.7662 43.154 19.9902C43.982 21.2142 44.39 22.7442 44.378 24.5802C44.366 26.3682 43.898 27.8502 42.974 29.0262C42.05 30.2022 40.814 31.0482 39.266 31.5642L39.95 35.3802C42.446 34.7202 44.402 33.4782 45.818 31.6542C47.234 29.8422 47.942 27.4122 47.942 24.3642C47.942 22.0002 47.396 19.9122 46.304 18.1002C45.224 16.2882 43.676 14.8722 41.66 13.8522C39.656 12.8322 37.256 12.3222 34.46 12.3222C31.628 12.3222 29.204 12.8442 27.188 13.8882C25.172 14.9322 23.63 16.3602 22.562 18.1722C21.494 19.9842 20.96 22.0482 20.96 24.3642ZM21.5 39.7778L21.5 50.9378C21.5 53.4098 22.19 55.3178 23.57 56.6618C24.95 58.0178 26.78 58.6958 29.06 58.6958C30.44 58.6958 31.67 58.3538 32.75 57.6698C33.83 56.9858 34.646 56.0018 35.198 54.7178C35.69 55.5698 36.392 56.2418 37.304 56.7338C38.216 57.2258 39.266 57.4718 40.454 57.4718C41.63 57.4718 42.746 57.1898 43.802 56.6258C44.87 56.0618 45.74 55.2218 46.412 54.1058C47.084 53.0018 47.42 51.6218 47.42 49.9658L47.42 39.7778L21.5 39.7778ZM36.836 43.5938L43.874 43.5938L43.874 49.9118C43.874 51.0398 43.55 51.9398 42.902 52.6118C42.254 53.2838 41.426 53.6198 40.418 53.6198C39.29 53.6198 38.408 53.2598 37.772 52.5398C37.148 51.8318 36.836 50.9558 36.836 49.9118L36.836 43.5938ZM25.082 43.5938L33.29 43.5938L33.29 50.5958C33.29 51.8918 32.888 52.9238 32.084 53.6918C31.292 54.4598 30.308 54.8438 29.132 54.8438C27.872 54.8438 26.882 54.4178 26.162 53.5658C25.442 52.7138 25.082 51.6458 25.082 50.3618L25.082 43.5938Z" fill="white"/>
<path d="M20.96 112.321C20.96 114.841 21.494 116.977 22.562 118.729C23.642 120.493 25.124 121.837 27.008 122.761C28.892 123.685 31.034 124.147 33.434 124.147C33.53 124.147 33.752 124.141 34.1 124.129C34.448 124.117 34.736 124.099 34.964 124.075L34.964 115.039L31.94 115.039L31.94 120.079C29.54 119.815 27.698 119.047 26.414 117.775C25.142 116.503 24.518 114.757 24.542 112.537C24.566 109.789 25.484 107.719 27.296 106.327C29.108 104.947 31.496 104.263 34.46 104.275C36.44 104.287 38.174 104.593 39.662 105.193C41.162 105.805 42.326 106.723 43.154 107.947C43.982 109.171 44.39 110.701 44.378 112.537C44.366 114.325 43.898 115.807 42.974 116.983C42.05 118.159 40.814 119.005 39.266 119.521L39.95 123.337C42.446 122.677 44.402 121.435 45.818 119.611C47.234 117.799 47.942 115.369 47.942 112.321C47.942 109.957 47.396 107.869 46.304 106.057C45.224 104.245 43.676 102.829 41.66 101.809C39.656 100.789 37.256 100.279 34.46 100.279C31.628 100.279 29.204 100.801 27.188 101.845C25.172 102.889 23.63 104.317 22.562 106.129C21.494 107.941 20.96 110.005 20.96 112.321ZM21.5 127.735L21.5 144.295L25.046 144.295L25.046 131.497L33.056 131.497L33.056 142.135L36.602 142.135L36.602 131.497L43.874 131.497L43.874 144.295L47.42 144.295L47.42 127.735L21.5 127.735ZM20.96 158.346C20.96 160.938 21.53 163.146 22.67 164.97C23.81 166.794 25.388 168.186 27.404 169.146C29.432 170.106 31.784 170.586 34.46 170.586C37.136 170.586 39.482 170.106 41.498 169.146C43.526 168.186 45.11 166.794 46.25 164.97C47.39 163.146 47.96 160.938 47.96 158.346C47.96 155.754 47.39 153.546 46.25 151.722C45.11 149.898 43.526 148.5 41.498 147.528C39.482 146.568 37.136 146.088 34.46 146.088C31.784 146.088 29.432 146.568 27.404 147.528C25.388 148.5 23.81 149.898 22.67 151.722C21.53 153.546 20.96 155.754 20.96 158.346ZM24.542 158.346C24.566 155.598 25.484 153.528 27.296 152.136C29.108 150.756 31.496 150.072 34.46 150.084C36.44 150.096 38.174 150.402 39.662 151.002C41.162 151.614 42.326 152.532 43.154 153.756C43.994 154.98 44.402 156.51 44.378 158.346C44.366 161.106 43.454 163.17 41.642 164.538C39.83 165.906 37.436 166.59 34.46 166.59C32.48 166.59 30.74 166.284 29.24 165.672C27.752 165.072 26.594 164.16 25.766 162.936C24.938 161.712 24.53 160.182 24.542 158.346ZM21.5 174.176L21.5 177.938L30.806 177.938L30.806 184.814L21.5 189.332L21.5 193.634L31.544 188.738C32.18 190.214 33.17 191.318 34.514 192.05C35.858 192.782 37.394 193.148 39.122 193.148C41.222 193.148 43.022 192.608 44.522 191.528C46.022 190.448 46.94 188.822 47.276 186.65C47.336 186.314 47.372 185.96 47.384 185.588C47.408 185.216 47.42 184.904 47.42 184.652L47.42 174.176L21.5 174.176ZM34.37 177.938L43.874 177.938L43.874 184.508C43.874 184.748 43.862 185.012 43.838 185.3C43.814 185.6 43.766 185.882 43.694 186.146C43.43 187.298 42.842 188.114 41.93 188.594C41.018 189.074 40.082 189.314 39.122 189.314C38.174 189.314 37.238 189.074 36.314 188.594C35.402 188.114 34.808 187.298 34.532 186.146C34.472 185.882 34.43 185.6 34.406 185.3C34.382 185.012 34.37 184.748 34.37 184.508L34.37 177.938ZM20.96 208.192C20.96 210.712 21.494 212.848 22.562 214.6C23.642 216.364 25.124 217.708 27.008 218.632C28.892 219.556 31.034 220.018 33.434 220.018C33.53 220.018 33.752 220.012 34.1 220C34.448 219.988 34.736 219.97 34.964 219.946L34.964 210.91L31.94 210.91L31.94 215.95C29.54 215.686 27.698 214.918 26.414 213.646C25.142 212.374 24.518 210.628 24.542 208.408C24.566 205.66 25.484 203.59 27.296 202.198C29.108 200.818 31.496 200.134 34.46 200.146C36.44 200.158 38.174 200.464 39.662 201.064C41.162 201.676 42.326 202.594 43.154 203.818C43.982 205.042 44.39 206.572 44.378 208.408C44.366 210.196 43.898 211.678 42.974 212.854C42.05 214.03 40.814 214.876 39.266 215.392L39.95 219.208C42.446 218.548 44.402 217.306 45.818 215.482C47.234 213.67 47.942 211.24 47.942 208.192C47.942 205.828 47.396 203.74 46.304 201.928C45.224 200.116 43.676 198.7 41.66 197.68C39.656 196.66 37.256 196.15 34.46 196.15C31.628 196.15 29.204 196.672 27.188 197.716C25.172 198.76 23.63 200.188 22.562 202C21.494 203.812 20.96 205.876 20.96 208.192ZM21.5 223.606L21.5 240.166L25.046 240.166L25.046 227.368L33.056 227.368L33.056 238.006L36.602 238.006L36.602 227.368L43.874 227.368L43.874 240.166L47.42 240.166L47.42 223.606L21.5 223.606ZM21.5 251.696L21.5 262.856C21.5 265.328 22.19 267.236 23.57 268.58C24.95 269.936 26.78 270.614 29.06 270.614C30.44 270.614 31.67 270.272 32.75 269.588C33.83 268.904 34.646 267.92 35.198 266.636C35.69 267.488 36.392 268.16 37.304 268.652C38.216 269.144 39.266 269.39 40.454 269.39C41.63 269.39 42.746 269.108 43.802 268.544C44.87 267.98 45.74 267.14 46.412 266.024C47.084 264.92 47.42 263.54 47.42 261.884L47.42 251.696L21.5 251.696ZM36.836 255.512L43.874 255.512L43.874 261.83C43.874 262.958 43.55 263.858 42.902 264.53C42.254 265.202 41.426 265.538 40.418 265.538C39.29 265.538 38.408 265.178 37.772 264.458C37.148 263.75 36.836 262.874 36.836 261.83L36.836 255.512ZM25.082 255.512L33.29 255.512L33.29 262.514C33.29 263.81 32.888 264.842 32.084 265.61C31.292 266.378 30.308 266.762 29.132 266.762C27.872 266.762 26.882 266.336 26.162 265.484C25.442 264.632 25.082 263.564 25.082 262.28L25.082 255.512ZM21.5 274.196L21.5 290.756L25.046 290.756L25.046 277.958L33.056 277.958L33.056 288.596L36.602 288.596L36.602 277.958L43.874 277.958L43.874 290.756L47.42 290.756L47.42 274.196L21.5 274.196ZM20.96 303.982C20.96 305.77 21.26 307.414 21.86 308.914C22.46 310.426 23.348 311.638 24.524 312.55C25.7 313.462 27.158 313.918 28.898 313.918C30.158 313.918 31.202 313.684 32.03 313.216C32.87 312.748 33.542 312.154 34.046 311.434C34.55 310.726 34.94 309.988 35.216 309.22C35.504 308.464 35.732 307.786 35.9 307.186L37.25 302.398C37.418 301.786 37.628 301.168 37.88 300.544C38.144 299.932 38.498 299.416 38.942 298.996C39.386 298.576 39.968 298.366 40.688 298.366C41.432 298.366 42.08 298.6 42.632 299.068C43.196 299.548 43.634 300.184 43.946 300.976C44.258 301.78 44.402 302.662 44.378 303.622C44.366 305.11 43.94 306.424 43.1 307.564C42.272 308.716 41.126 309.43 39.662 309.706L40.346 313.738C42.734 313.21 44.588 312.058 45.908 310.282C47.24 308.506 47.918 306.304 47.942 303.676C47.954 301.936 47.672 300.364 47.096 298.96C46.52 297.556 45.68 296.44 44.576 295.612C43.472 294.796 42.116 294.388 40.508 294.388C39.116 294.388 37.988 294.682 37.124 295.27C36.26 295.858 35.588 296.59 35.108 297.466C34.628 298.354 34.262 299.23 34.01 300.094L32.048 306.736C31.76 307.696 31.352 308.476 30.824 309.076C30.308 309.688 29.582 309.994 28.646 309.994C27.782 309.994 27.038 309.724 26.414 309.184C25.802 308.656 25.328 307.954 24.992 307.078C24.668 306.202 24.506 305.242 24.506 304.198C24.506 302.518 24.944 301.048 25.82 299.788C26.696 298.528 27.932 297.7 29.528 297.304L28.934 293.38C27.29 293.668 25.868 294.292 24.668 295.252C23.48 296.212 22.562 297.442 21.914 298.942C21.278 300.442 20.96 302.122 20.96 303.982ZM21.5 324.216L21.5 327.978L43.874 327.978L43.874 336.6L47.42 336.6L47.42 315.594L43.874 315.594L43.874 324.216L21.5 324.216ZM21.5 345.598L21.5 349.36L32.57 349.36L32.57 358.792L36.35 358.792L36.35 349.36L43.658 349.36L43.658 360.952L47.42 360.952L47.42 345.598L21.5 345.598ZM21.5 364.196L21.5 367.958L30.806 367.958L30.806 374.834L21.5 379.352L21.5 383.654L31.544 378.758C32.18 380.234 33.17 381.338 34.514 382.07C35.858 382.802 37.394 383.168 39.122 383.168C41.222 383.168 43.022 382.628 44.522 381.548C46.022 380.468 46.94 378.842 47.276 376.67C47.336 376.334 47.372 375.98 47.384 375.608C47.408 375.236 47.42 374.924 47.42 374.672L47.42 364.196L21.5 364.196ZM34.37 367.958L43.874 367.958L43.874 374.528C43.874 374.768 43.862 375.032 43.838 375.32C43.814 375.62 43.766 375.902 43.694 376.166C43.43 377.318 42.842 378.134 41.93 378.614C41.018 379.094 40.082 379.334 39.122 379.334C38.174 379.334 37.238 379.094 36.314 378.614C35.402 378.134 34.808 377.318 34.532 376.166C34.472 375.902 34.43 375.62 34.406 375.32C34.382 375.032 34.37 374.768 34.37 374.528L34.37 367.958ZM21.5 387.97L21.5 391.732L47.42 391.732L47.42 387.97L21.5 387.97ZM21.5 396.417L21.5 415.875L25.064 415.875L25.064 402.951L46.808 416.109L47.42 416.109L47.42 397.137L43.874 397.137L43.874 409.647L22.094 396.417L21.5 396.417ZM51.74 424.136L51.74 433.55L54.746 433.55L54.746 424.136L51.74 424.136ZM21.5 420.446L21.5 437.006L25.046 437.006L25.046 424.208L33.056 424.208L33.056 434.846L36.602 434.846L36.602 424.208L43.874 424.208L43.874 437.006L47.42 437.006L47.42 420.446L21.5 420.446ZM21.5 447.791L21.5 451.553L43.874 451.553L43.874 460.175L47.42 460.175L47.42 439.169L43.874 439.169L43.874 447.791L21.5 447.791ZM21.5 460.552L21.5 464.458L27.35 466.348L27.35 476.986L21.5 478.912L21.5 482.818L47.42 474.394L47.42 468.976L21.5 460.552ZM30.878 467.5L43.658 471.64L30.878 475.834L30.878 467.5ZM21.5 489.6L21.5 495.018L47.42 503.442L47.42 499.536L25.298 492.264L47.42 485.082L47.42 481.176L21.5 489.6ZM21.5 501.825L21.5 505.731L27.35 507.621L27.35 518.259L21.5 520.185L21.5 524.091L47.42 515.667L47.42 510.249L21.5 501.825ZM30.878 508.773L43.658 512.913L30.878 517.107L30.878 508.773Z" fill="black"/>
<defs>
<linearGradient id="paint0_linear" x1="91.5" y1="553.5" x2="91.5" y2="595.5" gradientUnits="userSpaceOnUse">
<stop stop-color="#CC0000"/>
<stop offset="1" stop-color="#2900CC"/>
</linearGradient>
<linearGradient id="paint1_linear" x1="91.5" y1="0.5" x2="91.5" y2="42.5" gradientUnits="userSpaceOnUse">
<stop stop-color="#CC0000"/>
<stop offset="1" stop-color="#2900CC"/>
</linearGradient>
</defs>
</svg>
